MFile 0 1 960
MTrk
0 Meta SeqName "ñSÇ´â§èóÇÃÇΩÇﬂÇÃÉpÉîÉ@Å[Ék/◊≥ﬁ™Ÿ"
0 Meta Copyright "(C)âπäyÇÃóë"
0 TimeSig 1/4 24 8
0 Tempo 250000
0 SMPTE 96 0 0 0 0
0 SysEx f0 7e 7f 09 01 f7
0 SysEx f0 7f 7f 04 01 00 7f f7
200 Par ch=1 c=0 v=0
202 Par ch=1 c=32 v=0
204 PrCh ch=1 p=0
206 Par ch=1 c=7 v=110
208 Par ch=1 c=10 v=64
232 Par ch=2 c=0 v=0
234 Par ch=2 c=32 v=0
236 PrCh ch=2 p=0
238 Par ch=2 c=7 v=110
240 Par ch=2 c=10 v=64
960 TimeSig 4/4 24 8
960 Tempo 1578947
960 On ch=1 n=67 v=54
960 Par ch=1 c=64 v=127
960 On ch=2 n=59 v=40
960 Par ch=2 c=64 v=127
1440 Off ch=2 n=59 v=64
1440 Tempo 1304347
1440 On ch=2 n=62 v=40
1920 Off ch=2 n=62 v=64
1920 Tempo 1200000
1920 On ch=2 n=59 v=40
1920 On ch=2 n=43 v=29
2400 Off ch=2 n=43 v=64
2400 Off ch=2 n=59 v=64
2400 On ch=2 n=62 v=40
2832 Par ch=1 c=64 v=0
2832 Par ch=2 c=64 v=0
2880 Off ch=2 n=62 v=64
2880 Tempo 1304347
2880 Par ch=1 c=64 v=127
2880 Par ch=1 c=64 v=127
2880 On ch=2 n=59 v=40
2880 On ch=2 n=36 v=36
2880 Par ch=2 c=64 v=127
2880 Par ch=2 c=64 v=127
3360 Off ch=2 n=36 v=64
3360 Off ch=2 n=59 v=64
3360 Off ch=1 n=67 v=64
3360 On ch=1 n=69 v=54
3360 On ch=2 n=64 v=40
3840 Off ch=2 n=64 v=64
3840 Off ch=1 n=69 v=64
3840 On ch=1 n=66 v=50
3840 On ch=2 n=59 v=40
3840 On ch=2 n=52 v=25
4320 Off ch=2 n=52 v=64
4320 Off ch=1 n=66 v=64
4320 On ch=1 n=64 v=46
4560 Off ch=2 n=59 v=64
4752 Par ch=1 c=64 v=0
4752 Par ch=2 c=64 v=0
4800 Off ch=1 n=64 v=64
4800 Tempo 1333333
4800 On ch=1 n=62 v=48
4800 Par ch=1 c=64 v=127
4800 Par ch=1 c=64 v=127
4800 On ch=2 n=54 v=40
4800 On ch=2 n=38 v=30
4800 Par ch=2 c=64 v=127
4800 Par ch=2 c=64 v=127
5280 Off ch=2 n=38 v=64
5280 Off ch=2 n=54 v=64
5280 On ch=2 n=59 v=40
5760 Off ch=2 n=59 v=64
5760 Off ch=1 n=62 v=64
5760 Tempo 1304347
5760 On ch=1 n=64 v=51
5760 On ch=2 n=54 v=40
5760 On ch=2 n=47 v=20
6240 Off ch=2 n=47 v=64
6240 Off ch=2 n=54 v=64
6240 Off ch=1 n=64 v=64
6240 On ch=1 n=66 v=54
6240 On ch=2 n=59 v=40
6672 Par ch=1 c=64 v=0
6672 Par ch=2 c=64 v=0
6720 Off ch=2 n=59 v=64
6720 Off ch=1 n=66 v=64
6720 On ch=1 n=66 v=46
6720 Par ch=1 c=64 v=127
6720 On ch=2 n=55 v=40
6720 On ch=2 n=40 v=28
6720 Par ch=2 c=64 v=127
7200 Off ch=2 n=40 v=64
7200 Off ch=2 n=55 v=64
7200 Off ch=1 n=66 v=64
7200 On ch=1 n=64 v=45
7200 On ch=2 n=59 v=31
7680 Off ch=2 n=59 v=64
7680 Off ch=1 n=64 v=64
7680 Tempo 1333333
7680 On ch=1 n=64 v=40
7680 On ch=2 n=55 v=34
7680 On ch=2 n=50 v=13
8160 Off ch=2 n=50 v=64
8160 Off ch=2 n=55 v=64
8160 On ch=2 n=59 v=34
8560 Off ch=1 n=64 v=64
8592 Par ch=1 c=64 v=0
8592 Par ch=2 c=64 v=0
8620 Off ch=2 n=59 v=64
8640 Tempo 1304347
8640 On ch=1 n=71 v=54
8640 Par ch=1 c=64 v=127
8640 On ch=2 n=60 v=40
8640 Par ch=2 c=64 v=127
9120 Off ch=2 n=60 v=64
9120 On ch=2 n=64 v=40
9600 Off ch=2 n=64 v=64
9600 Tempo 1250000
9600 On ch=2 n=60 v=40
9600 On ch=2 n=55 v=36
10080 Off ch=2 n=55 v=64
10080 Off ch=2 n=60 v=64
10080 On ch=2 n=64 v=40
10512 Par ch=1 c=64 v=0
10512 Par ch=2 c=64 v=0
10560 Off ch=2 n=64 v=64
10560 Tempo 1200000
10560 Par ch=1 c=64 v=127
10560 Par ch=1 c=64 v=127
10560 On ch=2 n=60 v=40
10560 On ch=2 n=45 v=27
10560 Par ch=2 c=64 v=127
10560 Par ch=2 c=64 v=127
11040 Off ch=2 n=45 v=64
11040 Off ch=2 n=60 v=64
11040 Off ch=1 n=71 v=64
11040 On ch=1 n=72 v=54
11040 On ch=2 n=64 v=40
11520 Off ch=2 n=64 v=64
11520 Off ch=1 n=72 v=64
11520 Tempo 1250000
11520 On ch=1 n=69 v=54
11520 On ch=2 n=60 v=40
11520 On ch=2 n=55 v=31
12000 Off ch=2 n=55 v=64
12000 Off ch=2 n=60 v=64
12000 Off ch=1 n=69 v=64
12000 On ch=1 n=67 v=54
12000 On ch=2 n=64 v=40
12432 Par ch=1 c=64 v=0
12432 Par ch=2 c=64 v=0
12460 Off ch=2 n=64 v=64
12480 Off ch=1 n=67 v=64
12480 On ch=1 n=66 v=54
12480 Par ch=1 c=64 v=127
12480 Par ch=1 c=64 v=127
12480 On ch=2 n=60 v=40
12480 On ch=2 n=50 v=30
12480 Par ch=2 c=64 v=127
12480 Par ch=2 c=64 v=127
12960 Off ch=2 n=50 v=64
12960 Off ch=2 n=60 v=64
12960 On ch=2 n=62 v=40
13440 Off ch=2 n=62 v=64
13440 Off ch=1 n=66 v=64
13440 On ch=1 n=67 v=54
13440 On ch=2 n=60 v=48
13920 Off ch=2 n=60 v=64
13920 Off ch=1 n=67 v=64
13920 On ch=1 n=69 v=54
13920 On ch=2 n=62 v=40
14352 Par ch=1 c=64 v=0
14352 Par ch=2 c=64 v=0
14400 Off ch=2 n=62 v=64
14400 Par ch=1 c=64 v=127
14400 On ch=2 n=59 v=40
14400 On ch=2 n=43 v=36
14400 Par ch=2 c=64 v=127
14880 Off ch=2 n=43 v=64
14880 Off ch=2 n=59 v=64
14880 Off ch=1 n=69 v=64
14880 On ch=1 n=71 v=52
14880 On ch=2 n=62 v=40
15360 Off ch=2 n=62 v=64
15360 Off ch=1 n=71 v=64
15360 On ch=1 n=67 v=50
15360 On ch=2 n=59 v=40
15360 On ch=2 n=54 v=19
15840 Off ch=2 n=54 v=64
15840 Off ch=2 n=59 v=64
15840 Off ch=1 n=67 v=64
15840 On ch=1 n=66 v=48
15840 On ch=2 n=62 v=40
16272 Par ch=1 c=64 v=0
16272 Par ch=2 c=64 v=0
16300 Off ch=2 n=62 v=64
16320 Off ch=1 n=66 v=64
16320 Tempo 1428571
16320 On ch=1 n=64 v=50
16320 Par ch=1 c=64 v=127
16320 On ch=2 n=59 v=40
16320 On ch=2 n=48 v=30
16320 Par ch=2 c=64 v=127
16800 Off ch=2 n=48 v=64
16800 Off ch=2 n=59 v=64
16800 Tempo 1304347
16800 On ch=2 n=60 v=40
17280 Off ch=2 n=60 v=64
17280 Off ch=1 n=64 v=64
17280 Tempo 1363636
17280 On ch=1 n=66 v=54
17280 On ch=2 n=59 v=46
17760 Off ch=2 n=59 v=64
17760 Off ch=1 n=66 v=64
17760 Tempo 1304347
17760 On ch=1 n=67 v=54
17760 On ch=2 n=60 v=40
18192 Par ch=1 c=64 v=0
18192 Par ch=2 c=64 v=0
18240 Off ch=2 n=60 v=64
18240 Par ch=1 c=64 v=127
18240 Par ch=1 c=64 v=127
18240 On ch=2 n=57 v=38
18240 On ch=2 n=42 v=36
18240 Par ch=2 c=64 v=127
18240 Par ch=2 c=64 v=127
18720 Off ch=2 n=42 v=64
18720 Off ch=2 n=57 v=64
18720 Off ch=1 n=67 v=64
18720 On ch=1 n=69 v=49
18720 On ch=2 n=60 v=38
19200 Off ch=2 n=60 v=64
19200 Off ch=1 n=69 v=64
19200 On ch=1 n=66 v=49
19200 On ch=2 n=57 v=38
19200 On ch=2 n=52 v=26
19680 Off ch=2 n=52 v=64
19680 Off ch=2 n=57 v=64
19680 Off ch=1 n=66 v=64
19680 Tempo 1363636
19680 On ch=1 n=64 v=47
19680 On ch=2 n=60 v=38
20112 Par ch=1 c=64 v=0
20112 Par ch=2 c=64 v=0
20140 Off ch=2 n=60 v=64
20160 Off ch=1 n=64 v=64
20160 On ch=1 n=66 v=50
20160 Par ch=1 c=64 v=127
20160 Par ch=1 c=64 v=127
20160 On ch=2 n=54 v=40
20160 On ch=2 n=47 v=29
20160 Par ch=2 c=64 v=127
20160 Par ch=2 c=64 v=127
20640 Off ch=2 n=47 v=64
20640 Off ch=2 n=54 v=64
20640 Tempo 1304347
20640 On ch=2 n=59 v=40
21120 Off ch=2 n=59 v=64
21120 On ch=2 n=62 v=40
21600 Off ch=2 n=62 v=64
21600 On ch=2 n=59 v=40
22032 Par ch=1 c=64 v=0
22032 Par ch=2 c=64 v=0
22080 Off ch=2 n=59 v=64
22080 Off ch=1 n=66 v=64
22080 Par ch=1 c=64 v=127
22080 On ch=2 n=42 v=41
22080 Par ch=2 c=64 v=127
22560 Tempo 1578947
22560 On ch=1 n=69 v=55
22560 On ch=1 n=64 v=46
22560 On ch=1 n=60 v=46
23040 Off ch=1 n=60 v=64
23040 Off ch=1 n=64 v=64
23040 Off ch=1 n=69 v=64
23040 Off ch=2 n=42 v=64
23040 On ch=1 n=66 v=58
23040 On ch=1 n=62 v=49
23040 On ch=1 n=59 v=49
23040 On ch=2 n=43 v=47
23520 Off ch=2 n=43 v=64
23520 Off ch=1 n=59 v=64
23520 Off ch=1 n=62 v=64
23520 Off ch=1 n=66 v=64
23520 Tempo 1764705
23520 On ch=1 n=64 v=59
23520 On ch=1 n=60 v=50
23520 On ch=1 n=54 v=50
23520 On ch=2 n=45 v=55
23952 Par ch=1 c=64 v=0
23952 Par ch=2 c=64 v=0
24000 Off ch=2 n=45 v=64
24000 Off ch=1 n=54 v=64
24000 Off ch=1 n=60 v=64
24000 Off ch=1 n=64 v=64
24000 Tempo 1666666
24000 On ch=1 n=66 v=59
24000 On ch=1 n=59 v=50
24000 Par ch=1 c=64 v=127
24000 On ch=2 n=50 v=45
24000 Par ch=2 c=64 v=127
24480 Off ch=2 n=50 v=64
24480 Off ch=1 n=59 v=64
24480 Off ch=1 n=66 v=64
24480 On ch=1 n=62 v=41
24960 Off ch=1 n=62 v=64
24960 Tempo 1428571
24960 On ch=1 n=71 v=64
25920 On ch=2 n=35 v=59
26832 Par ch=1 c=64 v=0
26832 Par ch=2 c=64 v=0
26880 Off ch=1 n=71 v=64
26880 On ch=1 n=71 v=64
26880 Par ch=1 c=64 v=127
26880 Par ch=2 c=64 v=127
27300 On ch=1 n=59 v=52
27300 On ch=1 n=60 v=52
27360 Off ch=1 n=71 v=64
27440 On ch=1 n=64 v=52
27520 On ch=1 n=67 v=52
27600 Off ch=2 n=35 v=64
27600 On ch=1 n=71 v=52
27680 On ch=1 n=76 v=52
27780 Off ch=1 n=60 v=64
27780 Off ch=1 n=59 v=64
27840 Off ch=1 n=76 v=64
27840 Off ch=1 n=67 v=64
27840 Off ch=1 n=64 v=64
27840 Tempo 1250000
27840 On ch=2 n=33 v=43
28320 On ch=1 n=64 v=40
28800 Off ch=1 n=64 v=64
28800 On ch=1 n=67 v=31
28800 On ch=2 n=59 v=48
29280 Off ch=1 n=67 v=64
29280 On ch=1 n=64 v=40
29760 Off ch=1 n=64 v=64
29760 Tempo 1200000
29760 On ch=1 n=60 v=40
30240 Off ch=1 n=60 v=64
30240 Off ch=2 n=59 v=64
30240 Off ch=1 n=71 v=64
30240 On ch=1 n=69 v=54
30240 On ch=1 n=64 v=31
30240 On ch=2 n=57 v=48
30720 Off ch=2 n=57 v=64
30720 Off ch=1 n=64 v=64
30720 Off ch=1 n=69 v=64
30720 Tempo 1304347
30720 On ch=1 n=74 v=54
30720 On ch=1 n=67 v=31
30720 On ch=2 n=62 v=48
31200 Off ch=2 n=62 v=64
31200 Off ch=1 n=67 v=64
31200 Off ch=1 n=74 v=64
31200 Tempo 1500000
31200 On ch=1 n=71 v=54
31200 On ch=1 n=64 v=31
31200 On ch=2 n=59 v=48
31616 Par ch=1 c=64 v=0
31616 Par ch=2 c=64 v=0
31680 Off ch=2 n=59 v=64
31680 Off ch=1 n=64 v=64
31680 Off ch=1 n=71 v=64
31680 Off ch=2 n=33 v=64
31680 Tempo 1304347
31680 On ch=1 n=71 v=54
31680 On ch=1 n=60 v=40
31680 Par ch=1 c=64 v=127
31680 On ch=2 n=59 v=48
32160 Off ch=1 n=60 v=64
32160 On ch=1 n=64 v=31
32160 On ch=1 n=66 v=31
32160 On ch=2 n=38 v=38
32160 On ch=2 n=45 v=38
32640 Off ch=1 n=64 v=64
32640 Off ch=2 n=59 v=64
32640 Off ch=1 n=71 v=64
32640 On ch=1 n=69 v=54
32640 On ch=2 n=54 v=48
33120 Off ch=1 n=66 v=64
33120 On ch=1 n=64 v=40
33600 Off ch=1 n=64 v=64
33600 Off ch=2 n=54 v=64
33600 Off ch=1 n=69 v=64
33600 On ch=1 n=67 v=54
33600 On ch=1 n=60 v=40
33600 On ch=2 n=59 v=48
34080 Off ch=1 n=60 v=64
34080 On ch=1 n=64 v=31
34560 Off ch=1 n=64 v=64
34560 Off ch=2 n=59 v=64
34560 Off ch=1 n=67 v=64
34560 On ch=1 n=69 v=54
34560 On ch=2 n=57 v=48
35040 Tempo 1428571
35040 On ch=1 n=64 v=40
35456 Par ch=1 c=64 v=0
35480 Off ch=1 n=69 v=64
35520 Off ch=1 n=64 v=64
35520 Off ch=2 n=57 v=64
35520 Off ch=2 n=45 v=64
35520 Off ch=2 n=38 v=64
35520 Tempo 1363636
35520 On ch=1 n=64 v=48
35520 Par ch=1 c=64 v=127
35520 On ch=2 n=55 v=48
36000 On ch=1 n=59 v=40
36480 Off ch=1 n=59 v=64
36480 Off ch=2 n=55 v=64
36480 Off ch=1 n=64 v=64
36480 On ch=1 n=64 v=40
36960 Off ch=1 n=64 v=64
36960 On ch=1 n=71 v=40
37340 Par ch=1 c=64 v=0
37440 Off ch=1 n=71 v=64
37440 Tempo 1666666
37440 On ch=1 n=64 v=31
37440 Par ch=1 c=64 v=127
37440 On ch=2 n=52 v=27
37440 On ch=2 n=40 v=23
37920 Off ch=2 n=40 v=64
37920 Off ch=2 n=52 v=64
37920 Off ch=1 n=64 v=64
37920 On ch=1 n=62 v=31
37920 On ch=1 n=72 v=27
37920 On ch=1 n=74 v=27
37920 On ch=2 n=50 v=27
37920 On ch=2 n=38 v=23
38300 Par ch=1 c=64 v=0
38400 Off ch=2 n=38 v=64
38400 Off ch=2 n=50 v=64
38400 Off ch=1 n=74 v=64
38400 Off ch=1 n=72 v=64
38400 Off ch=1 n=62 v=64
38400 On ch=1 n=67 v=31
38400 Par ch=1 c=64 v=127
38400 On ch=2 n=55 v=27
38400 On ch=2 n=43 v=23
38880 Off ch=2 n=43 v=64
38880 Off ch=2 n=55 v=64
38880 Off ch=1 n=67 v=64
38880 On ch=1 n=66 v=31
38880 On ch=1 n=72 v=27
38880 On ch=1 n=74 v=27
38880 On ch=2 n=54 v=27
38880 On ch=2 n=42 v=23
39260 Par ch=1 c=64 v=0
39360 Off ch=2 n=42 v=64
39360 Off ch=2 n=54 v=64
39360 Off ch=1 n=74 v=64
39360 Off ch=1 n=72 v=64
39360 Off ch=1 n=66 v=64
39360 Tempo 2307692
39360 On ch=1 n=71 v=33
39360 On ch=1 n=76 v=33
39360 On ch=1 n=64 v=33
39360 Par ch=1 c=64 v=127
39360 On ch=2 n=52 v=27
39360 On ch=2 n=40 v=23
39840 Off ch=1 n=64 v=64
39840 Off ch=1 n=76 v=64
39840 Off ch=1 n=71 v=64
39840 Tempo 2000000
39840 On ch=1 n=59 v=62
40320 Off ch=1 n=59 v=64
40320 Off ch=2 n=40 v=64
40320 Off ch=2 n=52 v=64
40320 Tempo 1621621
40320 On ch=1 n=62 v=66
40320 On ch=1 n=71 v=51
40800 Off ch=1 n=71 v=64
40800 Off ch=1 n=62 v=64
40800 On ch=1 n=64 v=66
41180 Par ch=1 c=64 v=0
41280 Off ch=1 n=64 v=64
41280 Tempo 2000000
41280 On ch=1 n=66 v=66
41280 Par ch=1 c=64 v=127
41280 On ch=2 n=62 v=60
41280 On ch=2 n=56 v=60
41280 On ch=2 n=40 v=60
41280 On ch=2 n=47 v=49
42140 Par ch=1 c=64 v=0
42240 Off ch=2 n=47 v=64
42240 Off ch=2 n=40 v=64
42240 Off ch=2 n=56 v=64
42240 Off ch=2 n=62 v=64
42240 Off ch=1 n=66 v=64
42240 Tempo 2142857
42240 On ch=1 n=64 v=66
42240 Par ch=1 c=64 v=127
42240 On ch=2 n=60 v=60
42240 On ch=2 n=54 v=60
42240 On ch=2 n=38 v=60
42240 On ch=2 n=45 v=56
42720 Off ch=2 n=60 v=64
42720 On ch=2 n=59 v=60
42960 Off ch=2 n=59 v=64
42960 On ch=2 n=57 v=60
43100 Par ch=1 c=64 v=0
43200 Off ch=2 n=57 v=64
43200 Off ch=2 n=45 v=64
43200 Off ch=2 n=38 v=64
43200 Off ch=2 n=54 v=64
43200 Off ch=1 n=64 v=64
43200 Tempo 1666666
43200 On ch=1 n=66 v=66
43200 Par ch=1 c=64 v=127
43200 On ch=2 n=59 v=60
43200 On ch=2 n=50 v=51
43200 On ch=2 n=54 v=60
43200 On ch=2 n=35 v=60
43200 On ch=2 n=42 v=56
45120 Off ch=2 n=42 v=64
45120 Off ch=2 n=35 v=64
45120 Off ch=2 n=54 v=64
45120 Off ch=2 n=50 v=64
45120 Off ch=2 n=59 v=64
45120 Off ch=1 n=66 v=64
45120 Tempo 1333333
45120 On ch=2 n=59 v=33
45120 On ch=2 n=54 v=33
45600 Off ch=2 n=54 v=64
45600 Off ch=2 n=59 v=64
45600 Tempo 1200000
45600 On ch=2 n=59 v=33
45600 On ch=2 n=62 v=33
46080 Off ch=2 n=62 v=64
46080 Off ch=2 n=59 v=64
46080 On ch=2 n=66 v=33
46080 On ch=2 n=62 v=33
46560 Off ch=2 n=62 v=64
46560 Off ch=2 n=66 v=64
46560 Tempo 1538461
46560 On ch=2 n=66 v=33
46560 On ch=2 n=71 v=33
46980 Par ch=1 c=64 v=0
47040 Off ch=2 n=71 v=64
47040 Off ch=2 n=66 v=64
47040 Tempo 1500000
47040 On ch=1 n=78 v=53
47040 Par ch=1 c=64 v=127
47040 On ch=2 n=74 v=34
47040 On ch=2 n=71 v=34
47040 On ch=2 n=69 v=34
47040 On ch=2 n=47 v=21
47040 On ch=2 n=35 v=29
47040 Par ch=2 c=64 v=127
47520 Off ch=2 n=69 v=64
47520 Off ch=2 n=71 v=64
47520 Off ch=2 n=74 v=64
47520 Tempo 1304347
47520 On ch=2 n=74 v=34
47520 On ch=2 n=71 v=34
47520 On ch=2 n=69 v=34
48000 Off ch=2 n=69 v=64
48000 Off ch=2 n=71 v=64
48000 Off ch=2 n=74 v=64
48000 Off ch=1 n=78 v=64
48000 Tempo 1250000
48000 On ch=1 n=79 v=53
48000 On ch=2 n=74 v=34
48000 On ch=2 n=71 v=34
48000 On ch=2 n=67 v=34
48480 Off ch=2 n=67 v=64
48480 Off ch=2 n=71 v=64
48480 Off ch=2 n=74 v=64
48480 Tempo 1200000
48480 On ch=2 n=74 v=34
48480 On ch=2 n=71 v=34
48480 On ch=2 n=67 v=34
48960 Off ch=2 n=67 v=64
48960 Off ch=2 n=71 v=64
48960 Off ch=2 n=74 v=64
48960 Off ch=2 n=35 v=64
48960 Off ch=2 n=47 v=64
48960 Tempo 1153846
48960 On ch=2 n=74 v=34
48960 On ch=2 n=71 v=34
48960 On ch=2 n=67 v=34
48960 On ch=2 n=47 v=21
48960 On ch=2 n=35 v=29
49440 Off ch=2 n=67 v=64
49440 Off ch=2 n=71 v=64
49440 Off ch=2 n=74 v=64
49440 Off ch=1 n=79 v=64
49440 On ch=1 n=78 v=53
49440 On ch=2 n=74 v=34
49440 On ch=2 n=71 v=34
49440 On ch=2 n=69 v=41
49920 Off ch=2 n=69 v=64
49920 Off ch=2 n=71 v=64
49920 Off ch=2 n=74 v=64
49920 Off ch=1 n=78 v=64
49920 On ch=1 n=79 v=53
49920 On ch=2 n=74 v=34
49920 On ch=2 n=71 v=34
49920 On ch=2 n=67 v=41
50400 Off ch=2 n=67 v=64
50400 Off ch=2 n=71 v=64
50400 Off ch=2 n=74 v=64
50400 Off ch=1 n=79 v=64
50400 Tempo 1304347
50400 On ch=1 n=81 v=53
50400 On ch=2 n=74 v=34
50400 On ch=2 n=71 v=34
50400 On ch=2 n=66 v=41
50820 Par ch=1 c=64 v=0
50820 Par ch=2 c=64 v=0
50880 Off ch=2 n=66 v=64
50880 Off ch=2 n=71 v=64
50880 Off ch=2 n=74 v=64
50880 Off ch=1 n=81 v=64
50880 Off ch=2 n=35 v=64
50880 Off ch=2 n=47 v=64
50880 Tempo 1428571
50880 On ch=1 n=74 v=48
50880 Par ch=1 c=64 v=127
50880 On ch=2 n=67 v=34
50880 On ch=2 n=71 v=34
50880 On ch=2 n=64 v=34
50880 On ch=2 n=47 v=21
50880 On ch=2 n=35 v=29
50880 Par ch=2 c=64 v=127
51360 Off ch=2 n=64 v=64
51360 Off ch=2 n=71 v=64
51360 Off ch=2 n=67 v=64
51360 Tempo 1250000
51360 On ch=2 n=67 v=34
51360 On ch=2 n=71 v=34
51360 On ch=2 n=64 v=34
51840 Off ch=2 n=64 v=64
51840 Off ch=2 n=71 v=64
51840 Off ch=2 n=67 v=64
51840 Off ch=1 n=74 v=64
51840 Tempo 1200000
51840 On ch=1 n=73 v=48
51840 On ch=2 n=67 v=34
51840 On ch=2 n=71 v=34
51840 On ch=2 n=64 v=34
52320 Off ch=2 n=64 v=64
52320 Off ch=2 n=71 v=64
52320 Off ch=2 n=67 v=64
52320 On ch=2 n=67 v=34
52320 On ch=2 n=71 v=34
52320 On ch=2 n=64 v=34
52800 Off ch=2 n=64 v=64
52800 Off ch=2 n=71 v=64
52800 Off ch=2 n=67 v=64
52800 On ch=2 n=67 v=34
52800 On ch=2 n=71 v=34
52800 On ch=2 n=64 v=34
53280 Off ch=2 n=64 v=64
53280 Off ch=2 n=71 v=64
53280 Off ch=2 n=67 v=64
53280 On ch=2 n=67 v=34
53280 On ch=2 n=71 v=34
53280 On ch=2 n=64 v=48
53760 Off ch=2 n=64 v=64
53760 Off ch=2 n=71 v=64
53760 Off ch=2 n=67 v=64
53760 Tempo 1250000
53760 On ch=2 n=67 v=34
53760 On ch=2 n=71 v=34
53760 On ch=2 n=59 v=48
54240 Off ch=2 n=59 v=64
54240 Off ch=2 n=71 v=64
54240 Off ch=2 n=67 v=64
54240 Tempo 1428571
54240 On ch=2 n=67 v=34
54240 On ch=2 n=71 v=34
54240 On ch=2 n=64 v=48
54480 Off ch=1 n=73 v=64
54660 Par ch=1 c=64 v=0
54660 Par ch=2 c=64 v=0
54720 Off ch=2 n=64 v=64
54720 Off ch=2 n=71 v=64
54720 Off ch=2 n=67 v=64
54720 Off ch=2 n=35 v=64
54720 Off ch=2 n=47 v=64
54720 Tempo 1463414
54720 On ch=1 n=74 v=48
54720 Par ch=1 c=64 v=127
54720 On ch=2 n=67 v=34
54720 On ch=2 n=71 v=34
54720 On ch=2 n=66 v=34
54720 On ch=2 n=47 v=21
54720 On ch=2 n=35 v=29
54720 Par ch=2 c=64 v=127
55200 Off ch=2 n=66 v=64
55200 Off ch=2 n=71 v=64
55200 Off ch=2 n=67 v=64
55200 Tempo 1250000
55200 On ch=2 n=67 v=34
55200 On ch=2 n=71 v=34
55200 On ch=2 n=66 v=34
55680 Off ch=2 n=66 v=64
55680 Off ch=2 n=71 v=64
55680 Off ch=2 n=67 v=64
55680 Off ch=1 n=74 v=64
55680 Tempo 1176470
55680 On ch=1 n=76 v=54
55680 On ch=2 n=67 v=34
55680 On ch=2 n=71 v=34
55680 On ch=2 n=64 v=34
56160 Off ch=2 n=64 v=64
56160 Off ch=2 n=71 v=64
56160 Off ch=2 n=67 v=64
56160 On ch=2 n=67 v=34
56160 On ch=2 n=71 v=34
56160 On ch=2 n=64 v=34
56640 Off ch=2 n=64 v=64
56640 Off ch=2 n=71 v=64
56640 Off ch=2 n=67 v=64
56640 Off ch=2 n=35 v=64
56640 Off ch=2 n=47 v=64
56640 On ch=2 n=67 v=34
56640 On ch=2 n=71 v=34
56640 On ch=2 n=64 v=34
56640 On ch=2 n=47 v=21
56640 On ch=2 n=35 v=29
57120 Off ch=2 n=64 v=64
57120 Off ch=2 n=71 v=64
57120 Off ch=2 n=67 v=64
57120 Off ch=1 n=76 v=64
57120 Tempo 1333333
57120 On ch=1 n=74 v=48
57120 On ch=2 n=67 v=34
57120 On ch=2 n=71 v=34
57120 On ch=2 n=66 v=39
57600 Off ch=2 n=66 v=64
57600 Off ch=2 n=71 v=64
57600 Off ch=2 n=67 v=64
57600 Off ch=1 n=74 v=64
57600 On ch=1 n=76 v=54
57600 On ch=2 n=67 v=34
57600 On ch=2 n=71 v=34
57600 On ch=2 n=64 v=40
58080 Off ch=2 n=64 v=64
58080 Off ch=2 n=71 v=64
58080 Off ch=2 n=67 v=64
58080 Off ch=1 n=76 v=64
58080 Tempo 1428571
58080 On ch=1 n=78 v=54
58080 On ch=2 n=67 v=34
58080 On ch=2 n=71 v=34
58080 On ch=2 n=62 v=40
58500 Par ch=1 c=64 v=0
58500 Par ch=2 c=64 v=0
58560 Off ch=2 n=62 v=64
58560 Off ch=2 n=71 v=64
58560 Off ch=2 n=67 v=64
58560 Off ch=1 n=78 v=64
58560 Off ch=2 n=35 v=64
58560 Off ch=2 n=47 v=64
58560 Tempo 1363636
58560 On ch=1 n=71 v=48
58560 Par ch=1 c=64 v=127
58560 On ch=2 n=64 v=34
58560 On ch=2 n=67 v=34
58560 On ch=2 n=61 v=40
58560 On ch=2 n=47 v=21
58560 On ch=2 n=35 v=29
58560 Par ch=2 c=64 v=127
59040 Off ch=2 n=61 v=64
59040 Off ch=2 n=67 v=64
59040 Off ch=2 n=64 v=64
59040 On ch=2 n=64 v=27
59040 On ch=2 n=67 v=27
59040 On ch=2 n=61 v=28
59520 Off ch=2 n=61 v=64
59520 Off ch=2 n=67 v=64
59520 Off ch=2 n=64 v=64
59520 Off ch=1 n=71 v=64
59520 Tempo 1304347
59520 On ch=1 n=69 v=48
59520 On ch=2 n=64 v=27
59520 On ch=2 n=67 v=27
59520 On ch=2 n=61 v=28
60000 Off ch=2 n=61 v=64
60000 Off ch=2 n=67 v=64
60000 Off ch=2 n=64 v=64
60000 On ch=2 n=64 v=27
60000 On ch=2 n=67 v=27
60000 On ch=2 n=61 v=28
60480 Off ch=2 n=61 v=64
60480 Off ch=2 n=67 v=64
60480 Off ch=2 n=64 v=64
60480 Tempo 1276595
60480 On ch=2 n=62 v=30
60480 On ch=2 n=66 v=50
60480 On ch=2 n=61 v=31
60960 Off ch=2 n=61 v=64
60960 Off ch=2 n=66 v=64
60960 Off ch=2 n=62 v=64
60960 On ch=2 n=62 v=31
60960 On ch=2 n=66 v=31
60960 On ch=2 n=61 v=32
61440 Off ch=2 n=61 v=64
61440 Off ch=2 n=66 v=64
61440 Off ch=2 n=62 v=64
61440 On ch=2 n=62 v=27
61440 On ch=2 n=66 v=27
61440 On ch=2 n=61 v=28
61920 Off ch=2 n=61 v=64
61920 Off ch=2 n=66 v=64
61920 Off ch=2 n=62 v=64
61920 On ch=2 n=62 v=27
61920 On ch=2 n=66 v=27
61920 On ch=2 n=61 v=28
62160 Off ch=1 n=69 v=64
62340 Par ch=1 c=64 v=0
62340 Par ch=2 c=64 v=0
62400 Off ch=2 n=61 v=64
62400 Off ch=2 n=66 v=64
62400 Off ch=2 n=62 v=64
62400 Off ch=2 n=35 v=64
62400 Off ch=2 n=47 v=64
62400 Tempo 1463414
62400 On ch=1 n=69 v=48
62400 Par ch=1 c=64 v=127
62400 On ch=2 n=62 v=27
62400 On ch=2 n=66 v=34
62400 On ch=2 n=61 v=35
62400 On ch=2 n=33 v=29
62400 Par ch=2 c=64 v=127
62880 Off ch=2 n=61 v=64
62880 Off ch=2 n=66 v=64
62880 Off ch=2 n=62 v=64
62880 Tempo 1250000
62880 On ch=2 n=62 v=27
62880 On ch=2 n=66 v=27
62880 On ch=2 n=61 v=35
63360 Off ch=2 n=61 v=64
63360 Off ch=2 n=66 v=64
63360 Off ch=2 n=62 v=64
63360 Off ch=1 n=69 v=64
63360 On ch=1 n=71 v=53
63360 On ch=2 n=62 v=34
63360 On ch=2 n=66 v=34
63360 On ch=2 n=59 v=35
63840 Off ch=2 n=59 v=64
63840 Off ch=2 n=66 v=64
63840 Off ch=2 n=62 v=64
63840 On ch=2 n=62 v=40
63840 On ch=2 n=66 v=40
63840 On ch=2 n=59 v=41
64320 Off ch=2 n=59 v=64
64320 Off ch=2 n=66 v=64
64320 Off ch=2 n=62 v=64
64320 Off ch=2 n=33 v=64
64320 On ch=2 n=62 v=41
64320 On ch=2 n=66 v=41
64320 On ch=2 n=59 v=42
64320 On ch=2 n=33 v=50
64800 Off ch=2 n=59 v=64
64800 Off ch=2 n=66 v=64
64800 Off ch=2 n=62 v=64
64800 Off ch=1 n=71 v=64
64800 Tempo 1428571
64800 On ch=1 n=69 v=53
64800 On ch=2 n=62 v=44
64800 On ch=2 n=66 v=44
64800 On ch=2 n=61 v=45
65280 Off ch=2 n=61 v=64
65280 Off ch=2 n=66 v=64
65280 Off ch=2 n=62 v=64
65280 Off ch=1 n=69 v=64
65280 On ch=1 n=71 v=61
65280 On ch=2 n=62 v=49
65280 On ch=2 n=66 v=49
65280 On ch=2 n=59 v=50
65760 Off ch=2 n=59 v=64
65760 Off ch=2 n=66 v=64
65760 Off ch=2 n=62 v=64
65760 Off ch=1 n=71 v=64
65760 Tempo 1500000
65760 On ch=1 n=73 v=66
65760 On ch=2 n=62 v=56
65760 On ch=2 n=66 v=56
65760 On ch=2 n=57 v=57
66180 Par ch=1 c=64 v=0
66180 Par ch=2 c=64 v=0
66240 Off ch=2 n=57 v=64
66240 Off ch=2 n=66 v=64
66240 Off ch=2 n=62 v=64
66240 Off ch=1 n=73 v=64
66240 Off ch=2 n=33 v=64
66240 Tempo 1578947
66240 On ch=1 n=66 v=67
66240 On ch=1 n=62 v=62
66240 On ch=1 n=55 v=62
66240 On ch=2 n=40 v=48
66240 On ch=2 n=47 v=48
67160 Off ch=1 n=55 v=64
67160 Off ch=1 n=62 v=64
67160 Off ch=1 n=66 v=64
67200 Off ch=2 n=47 v=64
67200 Off ch=2 n=40 v=64
67200 Tempo 1428571
67200 On ch=1 n=64 v=53
67200 On ch=1 n=59 v=48
67200 On ch=1 n=55 v=48
67200 On ch=2 n=45 v=51
67200 On ch=2 n=52 v=51
68600 Off ch=1 n=55 v=64
68600 Off ch=1 n=59 v=64
68600 Off ch=1 n=64 v=64
68640 Off ch=2 n=52 v=64
68640 Off ch=2 n=45 v=64
68640 Tempo 1666666
68640 On ch=1 n=62 v=60
68640 On ch=1 n=57 v=55
68640 On ch=1 n=54 v=55
68640 On ch=2 n=50 v=47
69120 Off ch=2 n=50 v=64
69120 Off ch=1 n=54 v=64
69120 Off ch=1 n=57 v=64
69120 Off ch=1 n=62 v=64
69120 Tempo 1500000
69120 On ch=1 n=64 v=60
69120 On ch=1 n=59 v=55
69120 On ch=1 n=55 v=55
69120 On ch=2 n=45 v=51
69120 On ch=2 n=52 v=51
69600 Off ch=2 n=52 v=64
69600 Off ch=2 n=45 v=64
69600 Off ch=1 n=55 v=64
69600 Off ch=1 n=59 v=64
69600 Off ch=1 n=64 v=64
69600 Tempo 1875000
69600 On ch=1 n=66 v=60
69600 On ch=1 n=62 v=55
69600 On ch=1 n=55 v=55
69600 On ch=2 n=40 v=51
69600 On ch=2 n=47 v=51
70080 Off ch=2 n=47 v=64
70080 Off ch=2 n=40 v=64
70080 Off ch=1 n=55 v=64
70080 Off ch=1 n=62 v=64
70080 Off ch=1 n=66 v=64
70080 Tempo 2000000
70080 TimeSig 2/4 24 8
70080 On ch=2 n=45 v=45
70080 On ch=2 n=52 v=45
70080 On ch=2 n=55 v=51
70080 On ch=2 n=59 v=51
70080 On ch=2 n=64 v=56
71040 Off ch=2 n=64 v=64
71040 Off ch=2 n=59 v=64
71040 Off ch=2 n=55 v=64
71040 Off ch=2 n=52 v=64
71040 Off ch=2 n=45 v=64
71040 Tempo 2222222
71040 On ch=2 n=50 v=33
71040 On ch=2 n=57 v=33
71040 On ch=2 n=62 v=39
71040 On ch=2 n=54 v=39
72000 Off ch=2 n=54 v=64
72000 Off ch=2 n=62 v=64
72000 Off ch=2 n=57 v=64
72000 Off ch=2 n=50 v=64
72000 TimeSig 4/4 24 8
72000 Tempo 1428571
72000 On ch=1 n=78 v=48
72000 Par ch=1 c=64 v=127
72000 On ch=2 n=71 v=29
72000 On ch=2 n=74 v=29
72000 On ch=2 n=69 v=29
72000 On ch=2 n=47 v=19
72000 On ch=2 n=35 v=27
72000 Par ch=2 c=64 v=127
72480 Off ch=2 n=69 v=64
72480 Off ch=2 n=74 v=64
72480 Off ch=2 n=71 v=64
72480 Tempo 1200000
72480 On ch=2 n=71 v=29
72480 On ch=2 n=74 v=29
72480 On ch=2 n=69 v=29
72960 Off ch=2 n=69 v=64
72960 Off ch=2 n=74 v=64
72960 Off ch=2 n=71 v=64
72960 Off ch=1 n=78 v=64
72960 On ch=1 n=79 v=48
72960 On ch=2 n=71 v=29
72960 On ch=2 n=74 v=29
72960 On ch=2 n=67 v=29
73440 Off ch=2 n=67 v=64
73440 Off ch=2 n=74 v=64
73440 Off ch=2 n=71 v=64
73440 On ch=2 n=71 v=29
73440 On ch=2 n=74 v=29
73440 On ch=2 n=67 v=29
73920 Off ch=2 n=67 v=64
73920 Off ch=2 n=74 v=64
73920 Off ch=2 n=71 v=64
73920 On ch=2 n=71 v=29
73920 On ch=2 n=74 v=29
73920 On ch=2 n=67 v=29
74400 Off ch=2 n=67 v=64
74400 Off ch=2 n=74 v=64
74400 Off ch=2 n=71 v=64
74400 Off ch=1 n=79 v=64
74400 Tempo 1304347
74400 On ch=1 n=78 v=48
74400 On ch=2 n=71 v=29
74400 On ch=2 n=74 v=29
74400 On ch=2 n=69 v=37
74880 Off ch=2 n=69 v=64
74880 Off ch=2 n=74 v=64
74880 Off ch=2 n=71 v=64
74880 Off ch=1 n=78 v=64
74880 Tempo 1176470
74880 On ch=1 n=79 v=48
74880 On ch=2 n=71 v=29
74880 On ch=2 n=74 v=29
74880 On ch=2 n=67 v=37
75360 Off ch=2 n=67 v=64
75360 Off ch=2 n=74 v=64
75360 Off ch=2 n=71 v=64
75360 Off ch=1 n=79 v=64
75360 Tempo 1333333
75360 On ch=1 n=81 v=48
75360 On ch=2 n=71 v=29
75360 On ch=2 n=74 v=29
75360 On ch=2 n=66 v=37
75780 Par ch=1 c=64 v=0
75780 Par ch=2 c=64 v=0
75840 Off ch=2 n=66 v=64
75840 Off ch=2 n=74 v=64
75840 Off ch=2 n=71 v=64
75840 Off ch=1 n=81 v=64
75840 Off ch=2 n=35 v=64
75840 Off ch=2 n=47 v=64
75840 Tempo 1304347
75840 On ch=1 n=74 v=45
75840 Par ch=1 c=64 v=127
75840 On ch=2 n=67 v=29
75840 On ch=2 n=71 v=29
75840 On ch=2 n=64 v=29
75840 On ch=2 n=52 v=25
75840 On ch=2 n=40 v=27
75840 Par ch=2 c=64 v=127
76320 Off ch=2 n=64 v=64
76320 Off ch=2 n=71 v=64
76320 Off ch=2 n=67 v=64
76320 Tempo 1176470
76320 On ch=2 n=67 v=29
76320 On ch=2 n=71 v=29
76320 On ch=2 n=64 v=29
76800 Off ch=2 n=64 v=64
76800 Off ch=2 n=71 v=64
76800 Off ch=2 n=67 v=64
76800 Off ch=1 n=74 v=64
76800 On ch=1 n=73 v=45
76800 On ch=2 n=67 v=29
76800 On ch=2 n=71 v=29
76800 On ch=2 n=64 v=29
77280 Off ch=2 n=64 v=64
77280 Off ch=2 n=71 v=64
77280 Off ch=2 n=67 v=64
77280 On ch=2 n=67 v=29
77280 On ch=2 n=71 v=29
77280 On ch=2 n=64 v=29
77760 Off ch=2 n=64 v=64
77760 Off ch=2 n=71 v=64
77760 Off ch=2 n=67 v=64
77760 On ch=2 n=67 v=29
77760 On ch=2 n=71 v=29
77760 On ch=2 n=64 v=29
78240 Off ch=2 n=64 v=64
78240 Off ch=2 n=71 v=64
78240 Off ch=2 n=67 v=64
78240 Tempo 1363636
78240 On ch=2 n=67 v=29
78240 On ch=2 n=71 v=29
78240 On ch=2 n=64 v=34
78720 Off ch=2 n=64 v=64
78720 Off ch=2 n=71 v=64
78720 Off ch=2 n=67 v=64
78720 Tempo 1200000
78720 On ch=2 n=67 v=29
78720 On ch=2 n=71 v=29
78720 On ch=2 n=59 v=35
79200 Off ch=2 n=59 v=64
79200 Off ch=2 n=71 v=64
79200 Off ch=2 n=67 v=64
79200 Tempo 1276595
79200 On ch=2 n=67 v=29
79200 On ch=2 n=71 v=29
79200 On ch=2 n=64 v=35
79440 Off ch=1 n=73 v=64
79620 Par ch=1 c=64 v=0
79620 Par ch=2 c=64 v=0
79680 Off ch=2 n=64 v=64
79680 Off ch=2 n=71 v=64
79680 Off ch=2 n=67 v=64
79680 Off ch=2 n=40 v=64
79680 Off ch=2 n=52 v=64
79680 Tempo 1428571
79680 On ch=1 n=74 v=45
79680 Par ch=1 c=64 v=127
79680 On ch=2 n=67 v=29
79680 On ch=2 n=71 v=29
79680 On ch=2 n=66 v=35
79680 On ch=2 n=57 v=23
79680 On ch=2 n=45 v=27
79680 Par ch=2 c=64 v=127
80160 Off ch=2 n=66 v=64
80160 Off ch=2 n=71 v=64
80160 Off ch=2 n=67 v=64
80160 Tempo 1224489
80160 On ch=2 n=67 v=29
80160 On ch=2 n=71 v=29
80160 On ch=2 n=66 v=30
80640 Off ch=2 n=66 v=64
80640 Off ch=2 n=71 v=64
80640 Off ch=2 n=67 v=64
80640 Off ch=1 n=74 v=64
80640 On ch=1 n=76 v=48
80640 On ch=2 n=67 v=29
80640 On ch=2 n=71 v=29
80640 On ch=2 n=64 v=30
81120 Off ch=2 n=64 v=64
81120 Off ch=2 n=71 v=64
81120 Off ch=2 n=67 v=64
81120 On ch=2 n=67 v=29
81120 On ch=2 n=71 v=29
81120 On ch=2 n=64 v=30
81600 Off ch=2 n=64 v=64
81600 Off ch=2 n=71 v=64
81600 Off ch=2 n=67 v=64
81600 On ch=2 n=67 v=29
81600 On ch=2 n=71 v=29
81600 On ch=2 n=64 v=30
82080 Off ch=2 n=64 v=64
82080 Off ch=2 n=71 v=64
82080 Off ch=2 n=67 v=64
82080 Off ch=1 n=76 v=64
82080 Tempo 1363636
82080 On ch=1 n=74 v=47
82080 On ch=2 n=67 v=36
82080 On ch=2 n=71 v=36
82080 On ch=2 n=66 v=36
82560 Off ch=2 n=66 v=64
82560 Off ch=2 n=71 v=64
82560 Off ch=2 n=67 v=64
82560 Off ch=1 n=74 v=64
82560 On ch=1 n=76 v=61
82560 On ch=2 n=67 v=42
82560 On ch=2 n=71 v=42
82560 On ch=2 n=64 v=42
83040 Off ch=2 n=64 v=64
83040 Off ch=2 n=71 v=64
83040 Off ch=2 n=67 v=64
83040 Off ch=1 n=76 v=64
83040 Tempo 1578947
83040 On ch=1 n=78 v=65
83040 On ch=2 n=67 v=47
83040 On ch=2 n=71 v=47
83040 On ch=2 n=62 v=47
83460 Par ch=1 c=64 v=0
83460 Par ch=2 c=64 v=0
83520 Off ch=2 n=62 v=64
83520 Off ch=2 n=71 v=64
83520 Off ch=2 n=67 v=64
83520 Off ch=1 n=78 v=64
83520 Off ch=2 n=45 v=64
83520 Off ch=2 n=57 v=64
83520 Tempo 1395348
83520 On ch=1 n=71 v=45
83520 Par ch=1 c=64 v=127
83520 On ch=2 n=64 v=29
83520 On ch=2 n=67 v=29
83520 On ch=2 n=61 v=30
83520 Par ch=2 c=64 v=127
84000 Off ch=2 n=61 v=64
84000 Off ch=2 n=67 v=64
84000 Off ch=2 n=64 v=64
84000 Tempo 1333333
84000 On ch=2 n=64 v=29
84000 On ch=2 n=67 v=29
84000 On ch=2 n=61 v=30
84480 Off ch=2 n=61 v=64
84480 Off ch=2 n=67 v=64
84480 Off ch=2 n=64 v=64
84480 Off ch=1 n=71 v=64
84480 On ch=1 n=69 v=45
84480 On ch=2 n=64 v=29
84480 On ch=2 n=67 v=29
84480 On ch=2 n=61 v=30
84480 On ch=2 n=45 v=23
84480 On ch=2 n=33 v=27
84960 Off ch=2 n=61 v=64
84960 Off ch=2 n=67 v=64
84960 Off ch=2 n=64 v=64
84960 On ch=2 n=64 v=29
84960 On ch=2 n=67 v=29
84960 On ch=2 n=61 v=30
85320 Par ch=1 c=64 v=0
85440 Off ch=2 n=61 v=64
85440 Off ch=2 n=67 v=64
85440 Off ch=2 n=64 v=64
85440 Off ch=2 n=33 v=64
85440 Off ch=2 n=45 v=64
85440 Off ch=1 n=69 v=64
85440 Tempo 1428571
85440 On ch=1 n=66 v=36
85440 Par ch=1 c=64 v=127
85440 On ch=2 n=62 v=23
85440 On ch=2 n=66 v=23
85440 On ch=2 n=61 v=24
85440 On ch=2 n=50 v=23
85440 On ch=2 n=38 v=27
85920 Off ch=2 n=61 v=64
85920 Off ch=2 n=66 v=64
85920 Off ch=2 n=62 v=64
85920 Tempo 1250000
85920 On ch=2 n=62 v=23
85920 On ch=2 n=66 v=23
85920 On ch=2 n=61 v=24
86400 Off ch=2 n=61 v=64
86400 Off ch=2 n=66 v=64
86400 Off ch=2 n=62 v=64
86400 Tempo 1333333
86400 On ch=2 n=62 v=23
86400 On ch=2 n=66 v=23
86400 On ch=2 n=61 v=24
86880 Off ch=2 n=61 v=64
86880 Off ch=2 n=66 v=64
86880 Off ch=2 n=62 v=64
86880 Tempo 1500000
86880 On ch=2 n=62 v=23
86880 On ch=2 n=66 v=23
86880 On ch=2 n=61 v=24
87120 Off ch=1 n=66 v=64
87300 Par ch=1 c=64 v=0
87300 Par ch=2 c=64 v=0
87360 Off ch=2 n=61 v=64
87360 Off ch=2 n=66 v=64
87360 Off ch=2 n=62 v=64
87360 Off ch=2 n=38 v=64
87360 Off ch=2 n=50 v=64
87360 Tempo 1395348
87360 On ch=1 n=69 v=48
87360 Par ch=1 c=64 v=127
87360 On ch=2 n=62 v=22
87360 On ch=2 n=66 v=22
87360 On ch=2 n=61 v=23
87360 On ch=2 n=31 v=20
87360 On ch=2 n=43 v=19
87360 Par ch=2 c=64 v=127
87840 Off ch=2 n=61 v=64
87840 Off ch=2 n=66 v=64
87840 Off ch=2 n=62 v=64
87840 Tempo 1304347
87840 On ch=2 n=62 v=22
87840 On ch=2 n=66 v=22
87840 On ch=2 n=61 v=23
88320 Off ch=2 n=61 v=64
88320 Off ch=2 n=66 v=64
88320 Off ch=2 n=62 v=64
88320 Off ch=1 n=69 v=64
88320 Tempo 1276595
88320 On ch=1 n=71 v=48
88320 On ch=2 n=62 v=29
88320 On ch=2 n=66 v=29
88320 On ch=2 n=59 v=30
88800 Off ch=2 n=59 v=64
88800 Off ch=2 n=66 v=64
88800 Off ch=2 n=62 v=64
88800 Tempo 1250000
88800 On ch=2 n=62 v=29
88800 On ch=2 n=66 v=29
88800 On ch=2 n=59 v=30
89280 Off ch=2 n=59 v=64
89280 Off ch=2 n=66 v=64
89280 Off ch=2 n=62 v=64
89280 Tempo 1224489
89280 On ch=2 n=62 v=29
89280 On ch=2 n=66 v=29
89280 On ch=2 n=59 v=30
89760 Off ch=2 n=59 v=64
89760 Off ch=2 n=66 v=64
89760 Off ch=2 n=62 v=64
89760 Off ch=1 n=71 v=64
89760 Tempo 1428571
89760 On ch=1 n=69 v=53
89760 On ch=2 n=62 v=37
89760 On ch=2 n=66 v=37
89760 On ch=2 n=61 v=38
90240 Off ch=2 n=61 v=64
90240 Off ch=2 n=66 v=64
90240 Off ch=2 n=62 v=64
90240 Off ch=1 n=69 v=64
90240 Off ch=2 n=43 v=64
90240 Off ch=2 n=31 v=64
90240 Tempo 1304347
90240 On ch=1 n=71 v=58
90240 On ch=2 n=62 v=42
90240 On ch=2 n=66 v=42
90240 On ch=2 n=59 v=43
90240 On ch=2 n=35 v=35
90240 On ch=2 n=47 v=28
90720 Off ch=2 n=59 v=64
90720 Off ch=2 n=66 v=64
90720 Off ch=2 n=62 v=64
90720 Off ch=1 n=71 v=64
90720 Tempo 1714285
90720 On ch=1 n=73 v=60
90720 On ch=2 n=62 v=49
90720 On ch=2 n=66 v=49
90720 On ch=2 n=57 v=50
91140 Par ch=1 c=64 v=0
91140 Par ch=2 c=64 v=0
91200 Off ch=2 n=57 v=64
91200 Off ch=2 n=66 v=64
91200 Off ch=2 n=62 v=64
91200 Off ch=1 n=73 v=64
91200 Off ch=2 n=47 v=64
91200 Off ch=2 n=35 v=64
91200 Tempo 1578947
91200 On ch=1 n=66 v=58
91200 On ch=1 n=62 v=53
91200 On ch=1 n=61 v=53
91200 On ch=2 n=40 v=51
91200 On ch=2 n=47 v=51
91200 On ch=2 n=56 v=45
92160 Off ch=2 n=56 v=64
92160 Off ch=2 n=47 v=64
92160 Off ch=2 n=40 v=64
92160 Off ch=1 n=61 v=64
92160 Off ch=1 n=62 v=64
92160 Off ch=1 n=66 v=64
92160 Tempo 1395348
92160 On ch=1 n=64 v=52
92160 On ch=1 n=61 v=47
92160 On ch=1 n=59 v=47
92160 On ch=2 n=45 v=41
92160 On ch=2 n=52 v=41
92160 On ch=2 n=55 v=45
93560 Off ch=1 n=59 v=64
93560 Off ch=1 n=61 v=64
93560 Off ch=1 n=64 v=64
93600 Off ch=2 n=55 v=64
93600 Off ch=2 n=52 v=64
93600 Off ch=2 n=45 v=64
93600 Tempo 1621621
93600 On ch=1 n=62 v=65
93600 On ch=1 n=59 v=53
93600 On ch=2 n=50 v=47
93600 On ch=2 n=54 v=45
93600 On ch=2 n=57 v=47
94080 Off ch=2 n=57 v=64
94080 Off ch=2 n=54 v=64
94080 Off ch=2 n=50 v=64
94080 Off ch=1 n=59 v=64
94080 Off ch=1 n=62 v=64
94080 Tempo 1463414
94080 On ch=1 n=64 v=65
94080 On ch=1 n=61 v=53
94080 On ch=1 n=59 v=53
94080 On ch=2 n=45 v=51
94080 On ch=2 n=52 v=51
94080 On ch=2 n=55 v=49
94560 Off ch=2 n=55 v=64
94560 Off ch=2 n=52 v=64
94560 Off ch=2 n=45 v=64
94560 Off ch=1 n=59 v=64
94560 Off ch=1 n=61 v=64
94560 Off ch=1 n=64 v=64
94560 Tempo 1666666
94560 On ch=1 n=66 v=65
94560 On ch=1 n=62 v=53
94560 On ch=1 n=59 v=53
94560 On ch=2 n=40 v=51
94560 On ch=2 n=47 v=51
94560 On ch=2 n=56 v=49
95040 Off ch=2 n=56 v=64
95040 Off ch=2 n=47 v=64
95040 Off ch=2 n=40 v=64
95040 Off ch=1 n=59 v=64
95040 Off ch=1 n=62 v=64
95040 Off ch=1 n=66 v=64
95040 Tempo 1714285
95040 On ch=1 n=64 v=65
95040 On ch=1 n=59 v=53
95040 On ch=1 n=61 v=53
95040 On ch=2 n=45 v=45
95040 On ch=2 n=52 v=45
95040 On ch=2 n=55 v=51
96000 Off ch=2 n=55 v=64
96000 Off ch=2 n=52 v=64
96000 Off ch=2 n=45 v=64
96000 Off ch=1 n=61 v=64
96000 Off ch=1 n=59 v=64
96000 Off ch=1 n=64 v=64
96000 Tempo 1818181
96000 On ch=1 n=57 v=36
96000 On ch=1 n=62 v=52
96000 On ch=2 n=50 v=39
96000 On ch=2 n=54 v=45
96720 Off ch=2 n=54 v=64
96720 Off ch=2 n=50 v=64
96720 Off ch=1 n=62 v=64
96720 Off ch=1 n=57 v=64
96960 Tempo 1621621
96960 On ch=1 n=66 v=73
96960 On ch=2 n=62 v=62
96960 On ch=2 n=56 v=62
96960 On ch=2 n=47 v=56
96960 On ch=2 n=40 v=56
97920 Off ch=2 n=40 v=64
97920 Off ch=2 n=47 v=64
97920 Off ch=2 n=56 v=64
97920 Off ch=2 n=62 v=64
97920 Off ch=1 n=66 v=64
97920 Tempo 1395348
97920 On ch=1 n=64 v=73
97920 On ch=2 n=60 v=62
97920 On ch=2 n=54 v=62
97920 On ch=2 n=45 v=56
97920 On ch=2 n=38 v=56
99320 Off ch=2 n=38 v=64
99320 Off ch=2 n=45 v=64
99320 Off ch=2 n=54 v=64
99320 Off ch=2 n=60 v=64
99320 Off ch=1 n=64 v=64
99360 Tempo 1764705
99360 On ch=1 n=62 v=73
99360 On ch=2 n=58 v=62
99360 On ch=2 n=52 v=62
99360 On ch=2 n=43 v=56
99360 On ch=2 n=36 v=56
99840 Off ch=2 n=36 v=64
99840 Off ch=2 n=43 v=64
99840 Off ch=2 n=52 v=64
99840 Off ch=2 n=58 v=64
99840 Off ch=1 n=62 v=64
99840 Tempo 1578947
99840 On ch=1 n=64 v=73
99840 On ch=2 n=60 v=62
99840 On ch=2 n=54 v=62
99840 On ch=2 n=45 v=56
99840 On ch=2 n=38 v=56
100320 Off ch=2 n=38 v=64
100320 Off ch=2 n=45 v=64
100320 Off ch=2 n=54 v=64
100320 Off ch=2 n=60 v=64
100320 Off ch=1 n=64 v=64
100320 Tempo 1935483
100320 On ch=1 n=66 v=73
100320 On ch=2 n=62 v=62
100320 On ch=2 n=56 v=62
100320 On ch=2 n=47 v=56
100320 On ch=2 n=40 v=56
100800 Off ch=2 n=40 v=64
100800 Off ch=2 n=47 v=64
100800 Off ch=2 n=56 v=64
100800 Off ch=2 n=62 v=64
100800 Off ch=1 n=66 v=64
100800 On ch=1 n=64 v=73
100800 On ch=2 n=59 v=62
100800 On ch=2 n=55 v=62
100800 On ch=2 n=53 v=62
100800 On ch=2 n=43 v=47
100800 On ch=2 n=50 v=49
101280 Off ch=2 n=53 v=64
101280 Off ch=2 n=55 v=64
101280 Tempo 3529411
101280 On ch=2 n=56 v=54
101280 On ch=2 n=54 v=54
101760 Off ch=2 n=54 v=64
101760 Off ch=2 n=56 v=64
101760 Off ch=2 n=50 v=64
101760 Off ch=2 n=43 v=64
101760 Off ch=2 n=59 v=64
101760 Off ch=1 n=64 v=64
101760 Tempo 3333333
101760 On ch=1 n=62 v=38
101760 On ch=2 n=60 v=30
101760 On ch=2 n=57 v=30
101760 On ch=2 n=54 v=30
101760 On ch=2 n=45 v=30
101760 On ch=2 n=38 v=30
102480 Off ch=2 n=38 v=64
102480 Off ch=2 n=45 v=64
102480 Off ch=2 n=54 v=64
102480 Off ch=2 n=57 v=64
102480 Off ch=2 n=60 v=64
102480 Off ch=1 n=62 v=64
102480 Tempo 2857142
102520 On ch=2 n=43 v=31
102600 On ch=2 n=50 v=31
102640 On ch=2 n=55 v=31
102680 On ch=2 n=62 v=29
102720 Tempo 1428571
102720 On ch=1 n=79 v=59
102720 On ch=1 n=71 v=36
102720 Par ch=1 c=64 v=127
102720 Par ch=2 c=64 v=127
103160 Off ch=2 n=62 v=64
103200 Off ch=1 n=71 v=64
103200 Tempo 1276595
103200 On ch=1 n=74 v=36
103680 Off ch=1 n=74 v=64
103680 Tempo 1250000
103680 On ch=1 n=71 v=36
103680 On ch=2 n=62 v=29
103680 On ch=2 n=59 v=29
103680 On ch=2 n=67 v=29
104160 Off ch=2 n=67 v=64
104160 Off ch=2 n=59 v=64
104160 Off ch=2 n=62 v=64
104160 Off ch=1 n=71 v=64
104160 Tempo 1224489
104160 On ch=1 n=74 v=36
104320 Off ch=2 n=55 v=64
104380 Off ch=2 n=50 v=64
104400 On ch=2 n=36 v=31
104440 Off ch=2 n=43 v=64
104540 On ch=2 n=43 v=31
104592 Par ch=1 c=64 v=0
104592 Par ch=2 c=64 v=0
104640 Off ch=1 n=74 v=64
104640 On ch=1 n=71 v=36
104640 Par ch=1 c=64 v=127
104640 Par ch=1 c=64 v=127
104640 Par ch=2 c=64 v=127
104640 Par ch=2 c=64 v=127
104640 On ch=2 n=48 v=22
105120 Off ch=1 n=71 v=64
105120 Off ch=1 n=79 v=64
105120 Tempo 1363636
105120 On ch=1 n=81 v=59
105120 On ch=1 n=76 v=36
105600 Off ch=1 n=76 v=64
105600 Off ch=1 n=81 v=64
105600 Tempo 1276595
105600 On ch=1 n=78 v=59
105600 On ch=1 n=71 v=36
105600 On ch=2 n=64 v=29
105600 On ch=2 n=59 v=29
105600 On ch=2 n=67 v=29
106080 Off ch=2 n=67 v=64
106080 Off ch=2 n=59 v=64
106080 Off ch=2 n=64 v=64
106080 Off ch=1 n=78 v=64
106080 On ch=1 n=76 v=59
106320 Off ch=1 n=71 v=64
106320 Off ch=2 n=48 v=64
106320 Off ch=2 n=43 v=64
106320 Off ch=2 n=36 v=64
106320 On ch=2 n=38 v=31
106460 On ch=2 n=45 v=31
106512 Par ch=1 c=64 v=0
106512 Par ch=2 c=64 v=0
106560 Off ch=1 n=76 v=64
106560 Tempo 1250000
106560 On ch=1 n=74 v=52
106560 On ch=1 n=66 v=36
106560 Par ch=1 c=64 v=127
106560 Par ch=1 c=64 v=127
106560 Par ch=2 c=64 v=127
106560 Par ch=2 c=64 v=127
106560 On ch=2 n=59 v=29
106560 On ch=2 n=50 v=31
107040 Off ch=2 n=59 v=64
107040 Off ch=1 n=66 v=64
107040 Tempo 1224489
107040 On ch=1 n=71 v=36
107520 Off ch=1 n=71 v=64
107520 Off ch=1 n=74 v=64
107520 On ch=1 n=76 v=59
107520 On ch=2 n=59 v=29
107520 On ch=2 n=66 v=29
108000 Off ch=2 n=66 v=64
108000 Off ch=2 n=59 v=64
108000 Off ch=1 n=76 v=64
108000 Tempo 1250000
108000 On ch=1 n=78 v=59
108000 On ch=1 n=71 v=36
108240 Off ch=2 n=50 v=64
108240 Off ch=2 n=45 v=64
108240 Off ch=2 n=38 v=64
108240 On ch=2 n=40 v=31
108380 On ch=2 n=47 v=31
108432 Par ch=1 c=64 v=0
108432 Par ch=2 c=64 v=0
108480 Off ch=1 n=71 v=64
108480 Off ch=1 n=78 v=64
108480 Tempo 1304347
108480 On ch=1 n=78 v=59
108480 On ch=1 n=71 v=28
108480 Par ch=1 c=64 v=127
108480 Par ch=2 c=64 v=127
108480 On ch=2 n=64 v=29
108480 On ch=2 n=52 v=31
108960 Off ch=2 n=64 v=64
108960 Off ch=1 n=71 v=64
108960 Off ch=1 n=78 v=64
108960 On ch=1 n=76 v=59
108960 On ch=1 n=71 v=36
109440 Off ch=1 n=71 v=64
109440 Off ch=1 n=76 v=64
109440 Tempo 1224489
109440 On ch=1 n=76 v=59
109440 On ch=2 n=64 v=29
109440 On ch=2 n=67 v=29
109440 On ch=2 n=59 v=29
109920 Off ch=2 n=59 v=64
109920 Off ch=2 n=67 v=64
109920 Off ch=2 n=64 v=64
109920 On ch=1 n=71 v=28
110160 Off ch=2 n=52 v=64
110160 Off ch=2 n=47 v=64
110160 Off ch=2 n=40 v=64
110160 On ch=2 n=48 v=31
110300 On ch=2 n=55 v=31
110320 Off ch=1 n=76 v=64
110352 Par ch=1 c=64 v=0
110352 Par ch=2 c=64 v=0
110380 Off ch=1 n=71 v=64
110400 Tempo 1250000
110400 On ch=1 n=83 v=59
110400 On ch=1 n=72 v=32
110400 On ch=1 n=71 v=28
110400 Par ch=1 c=64 v=127
110400 Par ch=2 c=64 v=127
110400 On ch=2 n=64 v=41
110880 Off ch=1 n=71 v=64
110880 Off ch=1 n=72 v=64
110880 On ch=1 n=76 v=36
111360 Off ch=1 n=76 v=64
111360 Off ch=2 n=64 v=64
111360 Tempo 1224489
111360 On ch=1 n=72 v=32
111360 On ch=1 n=71 v=28
111360 On ch=2 n=64 v=29
111840 Off ch=2 n=64 v=64
111840 Off ch=1 n=71 v=64
111840 Off ch=1 n=72 v=64
111840 Tempo 1200000
111840 On ch=1 n=76 v=36
112080 Off ch=2 n=55 v=64
112080 Off ch=2 n=48 v=64
112080 On ch=2 n=45 v=31
112220 On ch=2 n=52 v=31
112272 Par ch=1 c=64 v=0
112272 Par ch=2 c=64 v=0
112320 Off ch=1 n=76 v=64
112320 On ch=1 n=72 v=32
112320 On ch=1 n=71 v=28
112320 Par ch=1 c=64 v=127
112320 Par ch=1 c=64 v=127
112320 Par ch=2 c=64 v=127
112320 Par ch=2 c=64 v=127
112320 On ch=2 n=60 v=41
112800 Off ch=1 n=71 v=64
112800 Off ch=1 n=72 v=64
112800 Off ch=1 n=83 v=64
112800 On ch=1 n=84 v=59
112800 On ch=1 n=76 v=36
113280 Off ch=1 n=76 v=64
113280 Off ch=1 n=84 v=64
113280 Off ch=2 n=60 v=64
113280 On ch=1 n=81 v=59
113280 On ch=1 n=72 v=36
113280 On ch=2 n=64 v=29
113280 On ch=2 n=60 v=29
113280 On ch=2 n=66 v=29
113760 Off ch=2 n=66 v=64
113760 Off ch=2 n=60 v=64
113760 Off ch=2 n=64 v=64
113760 Off ch=1 n=72 v=64
113760 Off ch=1 n=81 v=64
113760 Tempo 1250000
113760 On ch=1 n=79 v=59
113760 On ch=1 n=76 v=36
113760 On ch=2 n=64 v=29
114000 Off ch=2 n=52 v=64
114000 Off ch=2 n=45 v=64
114000 On ch=2 n=47 v=31
114140 On ch=2 n=54 v=31
114192 Par ch=1 c=64 v=0
114192 Par ch=2 c=64 v=0
114220 Off ch=1 n=76 v=64
114240 Off ch=2 n=64 v=64
114240 Off ch=1 n=79 v=64
114240 Tempo 1428571
114240 On ch=1 n=78 v=59
114240 On ch=1 n=66 v=36
114240 Par ch=1 c=64 v=127
114240 Par ch=1 c=64 v=127
114240 Par ch=2 c=64 v=127
114240 Par ch=2 c=64 v=127
114240 On ch=2 n=62 v=41
114720 Off ch=1 n=66 v=64
114720 Tempo 1200000
114720 On ch=1 n=74 v=36
114720 On ch=1 n=71 v=36
115200 Off ch=1 n=71 v=64
115200 Off ch=1 n=74 v=64
115200 Off ch=2 n=62 v=64
115200 Off ch=1 n=78 v=64
115200 On ch=1 n=79 v=59
115200 On ch=1 n=71 v=35
115200 On ch=2 n=66 v=29
115200 On ch=2 n=62 v=29
115680 Off ch=2 n=62 v=64
115680 Off ch=2 n=66 v=64
115680 Off ch=1 n=71 v=64
115680 Off ch=1 n=79 v=64
115680 Tempo 1333333
115680 On ch=1 n=81 v=59
115680 On ch=1 n=69 v=36
115920 Off ch=2 n=54 v=64
115920 Off ch=2 n=47 v=64
115920 On ch=2 n=43 v=31
116060 On ch=2 n=50 v=31
116112 Par ch=1 c=64 v=0
116112 Par ch=2 c=64 v=0
116160 Off ch=1 n=69 v=64
116160 Tempo 1111111
116160 On ch=1 n=71 v=36
116160 Par ch=1 c=64 v=127
116160 Par ch=2 c=64 v=127
116160 On ch=2 n=59 v=41
116160 On ch=2 n=66 v=29
116640 Off ch=2 n=66 v=64
116640 Off ch=1 n=71 v=64
116640 Off ch=1 n=81 v=64
116640 Tempo 1276595
116640 On ch=1 n=83 v=59
117120 Off ch=1 n=83 v=64
117120 Off ch=2 n=59 v=64
117120 On ch=1 n=79 v=59
117120 On ch=1 n=71 v=36
117120 On ch=1 n=67 v=36
117120 On ch=2 n=62 v=29
117120 On ch=2 n=59 v=29
117600 Off ch=2 n=59 v=64
117600 Off ch=2 n=62 v=64
117600 Off ch=1 n=67 v=64
117600 Off ch=1 n=71 v=64
117600 Off ch=1 n=79 v=64
117600 Tempo 1224489
117600 On ch=1 n=78 v=59
117600 On ch=1 n=74 v=36
117840 Off ch=2 n=50 v=64
117840 Off ch=2 n=43 v=64
117840 On ch=2 n=45 v=31
117980 On ch=2 n=52 v=31
118032 Par ch=1 c=64 v=0
118032 Par ch=2 c=64 v=0
118060 Off ch=1 n=74 v=64
118080 Off ch=1 n=78 v=64
118080 Tempo 1363636
118080 On ch=1 n=76 v=59
118080 On ch=1 n=71 v=36
118080 On ch=1 n=64 v=36
118080 Par ch=1 c=64 v=127
118080 Par ch=2 c=64 v=127
118080 On ch=2 n=60 v=41
118560 Off ch=1 n=71 v=64
118560 Tempo 1200000
118560 On ch=1 n=72 v=36
119040 Off ch=1 n=72 v=64
119040 Off ch=2 n=60 v=64
119040 Off ch=1 n=64 v=64
119040 Off ch=1 n=76 v=64
119040 On ch=1 n=78 v=59
119040 On ch=1 n=66 v=36
119040 On ch=1 n=69 v=36
119040 On ch=2 n=64 v=29
119040 On ch=2 n=60 v=29
119520 Off ch=2 n=60 v=64
119520 Off ch=2 n=64 v=64
119520 Off ch=1 n=69 v=64
119520 Off ch=1 n=66 v=64
119520 Off ch=1 n=78 v=64
119520 Tempo 1363636
119520 On ch=1 n=79 v=59
119520 On ch=1 n=72 v=36
119520 On ch=1 n=67 v=36
119760 Off ch=2 n=52 v=64
119760 Off ch=2 n=45 v=64
119760 On ch=2 n=42 v=31
119900 On ch=2 n=48 v=31
119952 Par ch=1 c=64 v=0
119952 Par ch=2 c=64 v=0
120000 Off ch=1 n=67 v=64
120000 Off ch=1 n=72 v=64
120000 Tempo 1304347
120000 On ch=1 n=64 v=36
120000 On ch=1 n=69 v=36
120000 Par ch=1 c=64 v=127
120000 Par ch=1 c=64 v=127
120000 Par ch=2 c=64 v=127
120000 Par ch=2 c=64 v=127
120000 On ch=2 n=57 v=41
120480 Off ch=1 n=69 v=64
120480 Off ch=1 n=64 v=64
120480 Off ch=1 n=79 v=64
120480 On ch=1 n=81 v=59
120480 On ch=1 n=72 v=36
120960 Off ch=1 n=72 v=64
120960 Off ch=1 n=81 v=64
120960 Off ch=2 n=57 v=64
120960 On ch=1 n=78 v=59
120960 On ch=1 n=69 v=36
120960 On ch=1 n=66 v=36
120960 On ch=2 n=64 v=29
120960 On ch=2 n=60 v=29
121440 Off ch=2 n=60 v=64
121440 Off ch=2 n=64 v=64
121440 Off ch=1 n=66 v=64
121440 Off ch=1 n=78 v=64
121440 Tempo 1333333
121440 On ch=1 n=76 v=59
121440 On ch=1 n=72 v=36
121680 Off ch=2 n=48 v=64
121680 Off ch=2 n=42 v=64
121680 On ch=2 n=47 v=31
121820 On ch=2 n=54 v=31
121872 Par ch=1 c=64 v=0
121872 Par ch=2 c=64 v=0
121920 Off ch=1 n=72 v=64
121920 Off ch=1 n=76 v=64
121920 Off ch=1 n=69 v=64
121920 Tempo 1500000
121920 On ch=1 n=78 v=59
121920 On ch=1 n=71 v=36
121920 On ch=1 n=66 v=36
121920 Par ch=1 c=64 v=127
121920 Par ch=1 c=64 v=127
121920 Par ch=2 c=64 v=127
121920 Par ch=2 c=64 v=127
121920 On ch=2 n=62 v=41
122400 Off ch=1 n=66 v=64
122400 Off ch=1 n=71 v=64
122400 Tempo 1395348
122400 On ch=1 n=74 v=36
122880 Off ch=1 n=74 v=64
122880 Off ch=2 n=62 v=64
122880 Tempo 1200000
122880 On ch=1 n=71 v=36
122880 On ch=1 n=66 v=36
122880 On ch=2 n=62 v=29
123360 Off ch=2 n=62 v=64
123360 Off ch=1 n=71 v=64
123360 Tempo 1363636
123360 On ch=1 n=74 v=40
123600 Off ch=2 n=54 v=64
123600 Off ch=2 n=47 v=64
123792 Par ch=1 c=64 v=0
123792 Par ch=2 c=64 v=0
123840 Off ch=1 n=74 v=64
123840 Off ch=1 n=66 v=64
123840 Off ch=1 n=78 v=64
123840 Tempo 1428571
123840 On ch=1 n=72 v=48
123840 On ch=1 n=64 v=40
123840 On ch=1 n=69 v=40
123840 Par ch=1 c=64 v=127
123840 On ch=2 n=42 v=48
123840 Par ch=2 c=64 v=127
124320 Off ch=1 n=69 v=64
124320 Off ch=1 n=64 v=64
124320 Off ch=1 n=72 v=64
124320 Tempo 1666666
124320 On ch=1 n=69 v=58
124320 On ch=1 n=64 v=49
124320 On ch=1 n=60 v=42
124800 Off ch=1 n=60 v=64
124800 Off ch=1 n=64 v=64
124800 Off ch=1 n=69 v=64
124800 Off ch=2 n=42 v=64
124800 Tempo 1538461
124800 On ch=1 n=66 v=58
124800 On ch=1 n=62 v=49
124800 On ch=1 n=59 v=42
124800 On ch=2 n=47 v=47
125280 Off ch=2 n=47 v=64
125280 Off ch=1 n=59 v=64
125280 Off ch=1 n=62 v=64
125280 Off ch=1 n=66 v=64
125280 Tempo 1764705
125280 On ch=1 n=64 v=58
125280 On ch=1 n=60 v=42
125280 On ch=2 n=50 v=50
125280 On ch=2 n=54 v=50
125712 Par ch=1 c=64 v=0
125712 Par ch=2 c=64 v=0
125760 Off ch=2 n=54 v=64
125760 Off ch=2 n=50 v=64
125760 Off ch=1 n=60 v=64
125760 Off ch=1 n=64 v=64
125760 Tempo 1578947
125760 On ch=1 n=66 v=58
125760 On ch=1 n=62 v=49
125760 On ch=1 n=59 v=51
125760 Par ch=1 c=64 v=127
125760 On ch=2 n=47 v=61
125760 Par ch=2 c=64 v=127
126240 Off ch=2 n=47 v=64
126240 Off ch=1 n=59 v=64
126240 Off ch=1 n=62 v=64
126240 Off ch=1 n=66 v=64
126720 On ch=1 n=71 v=53
126720 On ch=1 n=83 v=64
127680 Tempo 1500000
127680 On ch=2 n=35 v=59
128592 Par ch=1 c=64 v=0
128592 Par ch=2 c=64 v=0
128640 Off ch=1 n=83 v=64
128640 Off ch=1 n=71 v=64
128640 On ch=1 n=71 v=53
128640 On ch=1 n=83 v=64
128640 Par ch=1 c=64 v=127
128640 Par ch=2 c=64 v=127
129120 Off ch=1 n=83 v=64
129120 Off ch=1 n=71 v=64
129120 On ch=1 n=59 v=45
129168 On ch=1 n=60 v=45
129216 On ch=1 n=64 v=45
129264 On ch=1 n=71 v=45
129312 On ch=1 n=72 v=45
129360 On ch=1 n=76 v=52
129408 On ch=1 n=83 v=52
129504 Par ch=1 c=64 v=0
129504 Par ch=2 c=64 v=0
129600 Off ch=1 n=76 v=64
129600 Off ch=1 n=72 v=64
129600 Off ch=1 n=71 v=64
129600 Off ch=1 n=64 v=64
129600 Off ch=1 n=60 v=64
129600 Off ch=2 n=35 v=64
129600 Tempo 1621621
129600 On ch=1 n=71 v=38
129600 Par ch=1 c=64 v=127
129600 On ch=2 n=45 v=36
129600 On ch=2 n=52 v=36
129600 Par ch=2 c=64 v=127
130080 Tempo 1428571
130080 On ch=1 n=76 v=41
130080 On ch=1 n=72 v=41
130560 Off ch=1 n=72 v=64
130560 Off ch=1 n=76 v=64
130560 Off ch=2 n=52 v=64
130560 Off ch=2 n=45 v=64
130560 Tempo 1200000
130560 On ch=1 n=60 v=26
130560 On ch=1 n=64 v=26
131040 Off ch=1 n=64 v=64
131040 Off ch=1 n=60 v=64
131040 On ch=1 n=76 v=35
131040 On ch=1 n=72 v=35
131520 Off ch=1 n=72 v=64
131520 Off ch=1 n=76 v=64
131520 Off ch=1 n=59 v=64
131520 On ch=2 n=59 v=45
132000 Off ch=2 n=59 v=64
132000 Off ch=1 n=71 v=64
132000 Off ch=1 n=83 v=64
132000 Tempo 1538461
132000 On ch=1 n=69 v=38
132000 On ch=1 n=81 v=52
132000 On ch=1 n=79 v=42
132000 On ch=1 n=76 v=42
132000 On ch=2 n=57 v=45
132000 On ch=2 n=64 v=38
132000 On ch=2 n=67 v=38
132480 Off ch=2 n=67 v=64
132480 Off ch=2 n=64 v=64
132480 Off ch=2 n=57 v=64
132480 Off ch=1 n=76 v=64
132480 Off ch=1 n=79 v=64
132480 Off ch=1 n=81 v=64
132480 Off ch=1 n=69 v=64
132480 Tempo 1333333
132480 On ch=1 n=74 v=38
132480 On ch=1 n=86 v=52
132480 On ch=2 n=62 v=45
132960 Off ch=2 n=62 v=64
132960 Off ch=1 n=86 v=64
132960 Off ch=1 n=74 v=64
132960 Tempo 1500000
132960 On ch=1 n=71 v=38
132960 On ch=1 n=72 v=38
132960 On ch=1 n=83 v=52
132960 On ch=1 n=76 v=42
132960 On ch=2 n=59 v=45
132960 On ch=2 n=64 v=38
132960 On ch=2 n=67 v=38
133376 Par ch=1 c=64 v=0
133376 Par ch=2 c=64 v=0
133440 Off ch=2 n=67 v=64
133440 Off ch=2 n=64 v=64
133440 Off ch=2 n=59 v=64
133440 Off ch=1 n=76 v=64
133440 Off ch=1 n=83 v=64
133440 Off ch=1 n=72 v=64
133440 Off ch=1 n=71 v=64
133440 Tempo 1250000
133440 On ch=1 n=83 v=54
133440 On ch=1 n=71 v=33
133440 Par ch=1 c=64 v=127
133440 On ch=2 n=59 v=39
133440 Par ch=2 c=64 v=127
133920 On ch=2 n=38 v=32
133920 On ch=2 n=45 v=32
133920 On ch=2 n=60 v=29
133920 On ch=2 n=64 v=29
134400 Off ch=2 n=59 v=64
134400 Off ch=1 n=71 v=64
134400 Off ch=1 n=83 v=64
134400 Tempo 1224489
134400 On ch=1 n=81 v=54
134400 On ch=1 n=69 v=33
134400 On ch=2 n=54 v=36
134880 Off ch=2 n=64 v=64
134880 Off ch=2 n=60 v=64
134880 On ch=1 n=76 v=19
134880 On ch=1 n=72 v=19
134880 On ch=2 n=60 v=29
134880 On ch=2 n=64 v=29
135360 Off ch=1 n=72 v=64
135360 Off ch=1 n=76 v=64
135360 Off ch=2 n=54 v=64
135360 Off ch=1 n=69 v=64
135360 Off ch=1 n=81 v=64
135360 Tempo 1333333
135360 On ch=1 n=79 v=54
135360 On ch=1 n=67 v=33
135360 On ch=2 n=59 v=39
135840 Off ch=2 n=64 v=64
135840 Off ch=2 n=60 v=64
135840 Tempo 1200000
135840 On ch=1 n=76 v=19
135840 On ch=1 n=72 v=19
135840 On ch=2 n=60 v=29
135840 On ch=2 n=64 v=29
136320 Off ch=1 n=72 v=64
136320 Off ch=1 n=76 v=64
136320 Off ch=2 n=59 v=64
136320 Off ch=1 n=67 v=64
136320 Off ch=1 n=79 v=64
136320 Tempo 1500000
136320 On ch=1 n=81 v=54
136320 On ch=1 n=69 v=33
136320 On ch=2 n=57 v=39
136800 Off ch=2 n=64 v=64
136800 Off ch=2 n=60 v=64
136800 On ch=1 n=76 v=28
136800 On ch=1 n=72 v=28
136800 On ch=2 n=60 v=29
136800 On ch=2 n=64 v=29
137216 Par ch=1 c=64 v=0
137216 Par ch=2 c=64 v=0
137240 Off ch=1 n=69 v=64
137240 Off ch=1 n=81 v=64
137280 Off ch=1 n=72 v=64
137280 Off ch=1 n=76 v=64
137280 Off ch=2 n=57 v=64
137280 Off ch=2 n=45 v=64
137280 Off ch=2 n=38 v=64
137280 Tempo 2000000
137280 On ch=1 n=76 v=53
137280 Par ch=1 c=64 v=127
137280 On ch=2 n=55 v=35
137280 Par ch=2 c=64 v=127
137760 Off ch=1 n=76 v=64
137760 Off ch=2 n=64 v=64
137760 Off ch=2 n=60 v=64
137760 Tempo 1463414
137760 On ch=1 n=76 v=25
137760 On ch=1 n=71 v=25
137760 On ch=2 n=59 v=18
137760 On ch=2 n=64 v=18
138720 Off ch=2 n=64 v=64
138720 Off ch=2 n=59 v=64
138720 Off ch=1 n=71 v=64
138720 Off ch=1 n=76 v=64
138720 Tempo 1578947
138720 On ch=1 n=76 v=25
138720 On ch=1 n=71 v=25
138720 On ch=2 n=59 v=18
138720 On ch=2 n=64 v=18
139080 Par ch=1 c=64 v=0
139080 Par ch=2 c=64 v=0
139200 Off ch=2 n=64 v=64
139200 Off ch=2 n=59 v=64
139200 Off ch=2 n=55 v=64
139200 On ch=1 n=64 v=31
139200 On ch=2 n=52 v=32
139200 On ch=2 n=40 v=35
139680 Off ch=2 n=40 v=64
139680 Off ch=2 n=52 v=64
139680 Off ch=1 n=64 v=64
139680 Off ch=1 n=71 v=64
139680 Off ch=1 n=76 v=64
139680 On ch=1 n=62 v=31
139680 On ch=1 n=72 v=27
139680 On ch=1 n=74 v=31
139680 On ch=2 n=50 v=25
139680 On ch=2 n=38 v=35
139680 On ch=2 n=48 v=20
140160 Off ch=2 n=48 v=64
140160 Off ch=2 n=38 v=64
140160 Off ch=2 n=50 v=64
140160 Off ch=1 n=62 v=64
140160 Tempo 1666666
140160 On ch=1 n=67 v=31
140160 On ch=1 n=79 v=31
140160 On ch=2 n=55 v=32
140160 On ch=2 n=43 v=35
140640 Off ch=2 n=43 v=64
140640 Off ch=2 n=55 v=64
140640 Off ch=1 n=79 v=64
140640 Off ch=1 n=67 v=64
140640 Off ch=1 n=74 v=64
140640 Off ch=1 n=72 v=64
140640 On ch=1 n=66 v=31
140640 On ch=1 n=72 v=27
140640 On ch=1 n=74 v=27
140640 On ch=1 n=78 v=31
140640 On ch=2 n=54 v=32
140640 On ch=2 n=42 v=35
140640 On ch=2 n=48 v=20
140640 On ch=2 n=50 v=20
141120 Off ch=2 n=50 v=64
141120 Off ch=2 n=48 v=64
141120 Off ch=2 n=42 v=64
141120 Off ch=2 n=54 v=64
141120 Off ch=1 n=78 v=64
141120 Off ch=1 n=74 v=64
141120 Off ch=1 n=72 v=64
141120 Off ch=1 n=66 v=64
141120 Tempo 2142857
141120 On ch=1 n=71 v=33
141120 On ch=1 n=76 v=33
141120 On ch=1 n=64 v=33
141120 On ch=2 n=47 v=34
141120 On ch=2 n=40 v=30
141120 On ch=2 n=52 v=34
141600 Off ch=1 n=64 v=64
141600 Tempo 1935483
141600 On ch=1 n=59 v=65
142080 Off ch=1 n=59 v=64
142080 Off ch=2 n=52 v=64
142080 Off ch=2 n=40 v=64
142080 Off ch=2 n=47 v=64
142080 Off ch=1 n=76 v=64
142080 Off ch=1 n=71 v=64
142080 Tempo 1578947
142080 On ch=1 n=62 v=69
142080 On ch=1 n=71 v=64
142560 Off ch=1 n=62 v=64
142560 Tempo 1666666
142560 On ch=1 n=64 v=69
142800 On ch=2 n=40 v=67
142800 On ch=2 n=47 v=66
143040 Off ch=1 n=64 v=64
143040 Off ch=1 n=71 v=64
143040 On ch=1 n=74 v=71
143040 On ch=1 n=68 v=66
143040 On ch=1 n=66 v=66
143040 On ch=2 n=62 v=59
143040 On ch=2 n=56 v=59
144000 Off ch=2 n=56 v=64
144000 Off ch=2 n=62 v=64
144000 Off ch=1 n=66 v=64
144000 Off ch=1 n=68 v=64
144000 Off ch=1 n=74 v=64
144000 Off ch=2 n=47 v=64
144000 Off ch=2 n=40 v=64
144000 Tempo 2142857
144000 On ch=2 n=38 v=62
144000 On ch=2 n=45 v=58
144240 Tempo 3750000
144240 On ch=1 n=64 v=71
144240 On ch=1 n=72 v=71
144240 On ch=2 n=60 v=57
144240 On ch=2 n=54 v=57
144480 Off ch=1 n=72 v=64
144480 Tempo 3529411
144480 On ch=1 n=71 v=71
144720 Off ch=1 n=71 v=64
144720 Tempo 5000000
144720 On ch=1 n=69 v=71
144870 On ch=2 n=43 v=65
144870 On ch=2 n=31 v=65
144960 Off ch=1 n=69 v=64
144960 Off ch=2 n=54 v=64
144960 Off ch=2 n=60 v=64
144960 Off ch=1 n=64 v=64
144960 Off ch=2 n=45 v=64
144960 Off ch=2 n=38 v=64
144960 Tempo 1621621
144960 On ch=1 n=71 v=70
144960 On ch=1 n=66 v=62
144960 On ch=1 n=59 v=62
144960 On ch=2 n=47 v=48
144960 On ch=2 n=54 v=57
144960 On ch=2 n=42 v=48
146790 Off ch=2 n=31 v=64
146790 Off ch=2 n=43 v=64
146880 Off ch=2 n=42 v=64
146880 Off ch=2 n=54 v=64
146880 Off ch=2 n=47 v=64
146880 Off ch=1 n=59 v=64
146880 Off ch=1 n=66 v=64
146880 Off ch=1 n=71 v=64
146880 Tempo 2307692
146880 On ch=1 n=64 v=55
146880 On ch=2 n=52 v=57
146880 On ch=2 n=40 v=57
147840 Off ch=2 n=40 v=64
147840 Off ch=2 n=52 v=64
147840 Off ch=1 n=64 v=64
147840 Tempo 5000000
147840 On ch=1 n=62 v=39
147840 On ch=2 n=50 v=42
147840 On ch=2 n=38 v=42
148320 Tempo 1395348
148320 On ch=1 n=79 v=39
148800 Off ch=1 n=79 v=64
148800 Off ch=2 n=38 v=64
148800 Off ch=2 n=50 v=64
148800 Off ch=1 n=62 v=64
148800 Tempo 1250000
148800 On ch=1 n=82 v=39
148800 On ch=1 n=79 v=27
148800 Par ch=1 c=64 v=127
148800 Par ch=2 c=64 v=127
149280 Off ch=1 n=79 v=64
149280 Off ch=1 n=82 v=64
149280 Tempo 1176470
149280 On ch=1 n=84 v=45
149280 On ch=1 n=82 v=23
149280 On ch=1 n=79 v=22
149760 Off ch=1 n=84 v=64
149760 Tempo 1132075
149760 On ch=1 n=86 v=48
150240 Off ch=1 n=86 v=64
150240 Off ch=1 n=79 v=64
150240 Off ch=1 n=82 v=64
150240 On ch=1 n=89 v=55
150240 On ch=1 n=82 v=23
150240 On ch=1 n=79 v=22
150720 Tempo 1090909
150720 On ch=2 n=74 v=30
151200 Off ch=1 n=79 v=64
151200 Off ch=1 n=82 v=64
151200 On ch=1 n=82 v=32
151200 On ch=1 n=79 v=31
151680 Off ch=2 n=74 v=64
151680 Off ch=1 n=89 v=64
151680 Tempo 1153846
151680 On ch=1 n=88 v=48
151680 On ch=2 n=74 v=30
152160 Off ch=1 n=88 v=64
152160 Off ch=1 n=79 v=64
152160 Off ch=1 n=82 v=64
152160 Tempo 1090909
152160 On ch=1 n=86 v=45
152160 On ch=1 n=82 v=32
152160 On ch=1 n=79 v=31
152520 Par ch=1 c=64 v=0
152520 Par ch=2 c=64 v=0
152640 Off ch=1 n=86 v=64
152640 Off ch=2 n=74 v=64
152640 Tempo 1052631
152640 On ch=1 n=88 v=42
152640 Par ch=1 c=64 v=127
152640 On ch=2 n=72 v=30
152640 Par ch=2 c=64 v=127
152960 Off ch=2 n=72 v=64
152960 On ch=2 n=67 v=30
153120 Off ch=1 n=88 v=64
153120 Off ch=1 n=79 v=64
153120 Off ch=1 n=82 v=64
153120 On ch=1 n=84 v=41
153120 On ch=1 n=82 v=32
153120 On ch=1 n=79 v=31
153280 Off ch=2 n=67 v=64
153280 On ch=2 n=72 v=30
153600 Off ch=2 n=72 v=64
153600 Off ch=1 n=79 v=64
153600 Off ch=1 n=82 v=64
153600 Off ch=1 n=84 v=64
153600 Tempo 1176470
153600 On ch=1 n=86 v=40
153600 On ch=1 n=81 v=32
153600 On ch=1 n=77 v=31
153600 On ch=2 n=62 v=30
154080 Off ch=1 n=77 v=64
154080 Off ch=1 n=81 v=64
154080 Off ch=1 n=86 v=64
154080 Tempo 1132075
154080 On ch=2 n=55 v=30
154440 Par ch=1 c=64 v=0
154440 Par ch=2 c=64 v=0
154560 Off ch=2 n=62 v=64
154560 Tempo 1090909
154560 On ch=1 n=65 v=46
154560 Par ch=1 c=64 v=127
154560 On ch=2 n=60 v=30
154560 Par ch=2 c=64 v=127
155040 Off ch=2 n=60 v=64
155040 Off ch=1 n=65 v=64
155040 Off ch=2 n=55 v=64
155040 On ch=1 n=69 v=46
155040 On ch=2 n=60 v=30
155040 On ch=2 n=65 v=30
155040 On ch=2 n=55 v=30
155040 On ch=2 n=62 v=30
155520 Off ch=2 n=62 v=64
155520 Off ch=2 n=55 v=64
155520 Off ch=2 n=65 v=64
155520 Off ch=2 n=60 v=64
155520 Off ch=1 n=69 v=64
155520 Tempo 1052631
155520 On ch=1 n=65 v=46
155520 On ch=2 n=60 v=30
155520 On ch=2 n=57 v=30
156000 Off ch=2 n=57 v=64
156000 Off ch=2 n=60 v=64
156000 Off ch=1 n=65 v=64
156000 Tempo 952380
156000 On ch=1 n=62 v=46
156000 On ch=2 n=53 v=30
156000 On ch=2 n=57 v=30
156000 On ch=2 n=55 v=30
156360 Par ch=1 c=64 v=0
156360 Par ch=2 c=64 v=0
156480 Off ch=2 n=57 v=64
156480 Off ch=2 n=53 v=64
156480 Off ch=1 n=62 v=64
156480 Tempo 1071428
156480 On ch=1 n=65 v=54
156480 Par ch=1 c=64 v=127
156480 On ch=2 n=60 v=34
156480 On ch=2 n=57 v=34
156480 Par ch=2 c=64 v=127
156800 Off ch=2 n=57 v=64
156800 Off ch=2 n=60 v=64
156800 Off ch=1 n=65 v=64
156800 On ch=1 n=69 v=58
156800 On ch=2 n=60 v=40
156800 On ch=2 n=65 v=40
156960 Off ch=2 n=60 v=64
156960 Off ch=2 n=55 v=64
156960 Tempo 1250000
156960 On ch=2 n=55 v=43
156960 On ch=2 n=60 v=43
157120 Off ch=2 n=65 v=64
157120 Off ch=1 n=69 v=64
157120 On ch=1 n=74 v=62
157120 On ch=2 n=65 v=45
157120 On ch=2 n=69 v=45
157440 Off ch=2 n=69 v=64
157440 Off ch=2 n=65 v=64
157440 Off ch=1 n=74 v=64
157440 Off ch=2 n=60 v=64
157440 Off ch=2 n=55 v=64
157440 Tempo 1666666
157440 On ch=1 n=76 v=66
157440 On ch=2 n=65 v=50
157440 On ch=2 n=69 v=50
157440 On ch=2 n=59 v=50
157440 On ch=2 n=50 v=45
157920 Tempo 1071428
157920 On ch=2 n=43 v=33
158880 Off ch=2 n=43 v=64
158880 Off ch=2 n=50 v=64
158880 Off ch=2 n=59 v=64
158880 Off ch=2 n=69 v=64
158880 Off ch=2 n=65 v=64
158880 Off ch=1 n=76 v=64
158880 Tempo 1200000
158880 On ch=1 n=65 v=55
158880 On ch=2 n=57 v=39
158880 On ch=2 n=60 v=39
159360 Off ch=2 n=60 v=64
159360 Off ch=2 n=57 v=64
159360 Off ch=1 n=65 v=64
159360 Tempo 1071428
159360 On ch=1 n=69 v=60
159360 On ch=2 n=65 v=48
159360 On ch=2 n=60 v=48
159360 On ch=2 n=62 v=48
159360 On ch=2 n=55 v=48
159840 Off ch=2 n=55 v=64
159840 Off ch=2 n=62 v=64
159840 Off ch=2 n=60 v=64
159840 Off ch=2 n=65 v=64
159840 Off ch=1 n=69 v=64
159840 Tempo 1304347
159840 On ch=1 n=74 v=67
159840 On ch=2 n=65 v=53
159840 On ch=2 n=69 v=53
159840 On ch=2 n=55 v=53
159840 On ch=2 n=60 v=53
160200 Par ch=1 c=64 v=0
160200 Par ch=2 c=64 v=0
160320 Off ch=2 n=60 v=64
160320 Off ch=2 n=55 v=64
160320 Off ch=2 n=69 v=64
160320 Off ch=2 n=65 v=64
160320 Off ch=1 n=74 v=64
160320 Tempo 1714285
160320 On ch=1 n=76 v=64
160320 Par ch=1 c=64 v=127
160320 On ch=2 n=65 v=46
160320 On ch=2 n=69 v=46
160320 On ch=2 n=59 v=46
160320 On ch=2 n=50 v=41
160320 Par ch=2 c=64 v=127
160800 Tempo 1111111
160800 On ch=2 n=43 v=29
161760 Off ch=2 n=43 v=64
161760 Off ch=2 n=50 v=64
161760 Off ch=2 n=59 v=64
161760 Off ch=2 n=69 v=64
161760 Off ch=2 n=65 v=64
161760 Off ch=1 n=76 v=64
161760 Tempo 1500000
161760 On ch=1 n=76 v=56
161760 On ch=2 n=55 v=36
161760 On ch=2 n=65 v=36
161760 On ch=2 n=69 v=36
161760 On ch=2 n=59 v=36
162120 Par ch=1 c=64 v=0
162120 Par ch=2 c=64 v=0
162240 Off ch=2 n=59 v=64
162240 Off ch=2 n=69 v=64
162240 Off ch=2 n=65 v=64
162240 Off ch=2 n=55 v=64
162240 Off ch=1 n=76 v=64
162240 Tempo 1333333
162240 On ch=1 n=72 v=45
162240 Par ch=1 c=64 v=127
162240 On ch=2 n=55 v=36
162240 On ch=2 n=48 v=36
162240 Par ch=2 c=64 v=127
162720 Tempo 1500000
162720 On ch=2 n=65 v=36
162720 On ch=2 n=67 v=36
163200 Off ch=2 n=67 v=64
163200 Off ch=2 n=65 v=64
163200 Off ch=2 n=48 v=64
163200 Off ch=2 n=55 v=64
163200 Tempo 1666666
163200 On ch=1 n=79 v=39
163200 On ch=1 n=77 v=39
163680 Off ch=1 n=77 v=64
163680 Off ch=1 n=79 v=64
163680 Off ch=1 n=72 v=64
163680 Tempo 1250000
163680 On ch=1 n=72 v=39
163680 On ch=1 n=67 v=31
163680 On ch=2 n=64 v=33
164040 Par ch=1 c=64 v=0
164040 Par ch=2 c=64 v=0
164160 Off ch=2 n=64 v=64
164160 Off ch=1 n=67 v=64
164160 Off ch=1 n=72 v=64
164160 Tempo 1200000
164160 On ch=1 n=75 v=39
164160 On ch=1 n=72 v=31
164160 Par ch=1 c=64 v=127
164160 On ch=2 n=63 v=33
164160 Par ch=2 c=64 v=127
164640 Off ch=2 n=63 v=64
164640 Off ch=1 n=72 v=64
164640 Off ch=1 n=75 v=64
164640 Tempo 1176470
164640 On ch=1 n=77 v=45
164640 On ch=1 n=75 v=32
164640 On ch=2 n=74 v=33
165120 Off ch=2 n=74 v=64
165120 Off ch=1 n=77 v=64
165120 On ch=1 n=79 v=48
165120 On ch=2 n=72 v=33
165600 Off ch=2 n=72 v=64
165600 Off ch=1 n=79 v=64
165600 Off ch=1 n=75 v=64
165600 Tempo 1250000
165600 On ch=1 n=82 v=55
165600 On ch=1 n=75 v=32
165600 On ch=1 n=72 v=31
165600 On ch=2 n=70 v=33
166080 Off ch=2 n=70 v=64
166080 Tempo 1176470
166080 On ch=2 n=67 v=33
166560 Off ch=2 n=67 v=64
166560 Off ch=1 n=72 v=64
166560 Off ch=1 n=75 v=64
166560 Tempo 1111111
166560 On ch=1 n=75 v=32
166560 On ch=1 n=72 v=31
166560 On ch=2 n=70 v=33
167040 Off ch=2 n=70 v=64
167040 Off ch=1 n=82 v=64
167040 Tempo 1250000
167040 On ch=1 n=81 v=48
167040 On ch=2 n=69 v=33
167520 Off ch=2 n=69 v=64
167520 Off ch=1 n=81 v=64
167520 Off ch=1 n=72 v=64
167520 Off ch=1 n=75 v=64
167520 Tempo 1111111
167520 On ch=1 n=79 v=45
167520 On ch=1 n=75 v=32
167520 On ch=1 n=72 v=31
167520 On ch=2 n=67 v=33
167880 Par ch=1 c=64 v=0
167880 Par ch=2 c=64 v=0
168000 Off ch=2 n=67 v=64
168000 Off ch=1 n=79 v=64
168000 Tempo 1071428
168000 On ch=1 n=81 v=42
168000 Par ch=1 c=64 v=127
168000 On ch=2 n=65 v=30
168000 Par ch=2 c=64 v=127
168320 Off ch=2 n=65 v=64
168320 On ch=2 n=60 v=30
168480 Off ch=1 n=81 v=64
168480 Off ch=1 n=72 v=64
168480 Off ch=1 n=75 v=64
168480 On ch=1 n=77 v=41
168480 On ch=1 n=75 v=32
168480 On ch=1 n=72 v=31
168640 Off ch=2 n=60 v=64
168640 On ch=2 n=65 v=30
168960 Off ch=2 n=65 v=64
168960 Off ch=1 n=72 v=64
168960 Off ch=1 n=75 v=64
168960 Off ch=1 n=77 v=64
168960 Tempo 1304347
168960 On ch=1 n=79 v=40
168960 On ch=1 n=74 v=32
168960 On ch=1 n=70 v=31
168960 On ch=2 n=55 v=30
169440 Off ch=1 n=70 v=64
169440 Off ch=1 n=74 v=64
169440 Off ch=1 n=79 v=64
169440 Tempo 1428571
169440 On ch=2 n=43 v=26
169440 On ch=2 n=48 v=26
169800 Par ch=1 c=64 v=0
169800 Par ch=2 c=64 v=0
169920 Off ch=2 n=55 v=64
169920 Tempo 1333333
169920 On ch=1 n=62 v=49
169920 On ch=1 n=70 v=54
169920 On ch=1 n=65 v=49
169920 Par ch=1 c=64 v=127
169920 On ch=2 n=58 v=46
169920 Par ch=2 c=64 v=127
170400 Off ch=2 n=58 v=64
170400 Off ch=1 n=65 v=64
170400 Off ch=1 n=70 v=64
170400 Off ch=1 n=62 v=64
170400 Tempo 1176470
170400 On ch=1 n=65 v=49
170400 On ch=1 n=74 v=54
170400 On ch=1 n=69 v=49
170400 On ch=2 n=62 v=46
170880 Off ch=2 n=62 v=64
170880 Off ch=1 n=69 v=64
170880 Off ch=1 n=74 v=64
170880 Off ch=1 n=65 v=64
170880 Tempo 1071428
170880 On ch=1 n=62 v=49
170880 On ch=1 n=70 v=54
170880 On ch=1 n=65 v=49
170880 On ch=2 n=58 v=46
171360 Off ch=2 n=58 v=64
171360 Off ch=1 n=65 v=64
171360 Off ch=1 n=70 v=64
171360 Off ch=1 n=62 v=64
171360 Off ch=2 n=48 v=64
171360 Off ch=2 n=43 v=64
171360 Tempo 1034482
171360 On ch=1 n=58 v=49
171360 On ch=1 n=67 v=54
171360 On ch=1 n=62 v=49
171360 On ch=2 n=55 v=54
171360 On ch=2 n=43 v=48
171360 On ch=2 n=48 v=48
171720 Par ch=1 c=64 v=0
171720 Par ch=2 c=64 v=0
171840 Off ch=2 n=55 v=64
171840 Off ch=1 n=62 v=64
171840 Off ch=1 n=67 v=64
171840 Off ch=1 n=58 v=64
171840 Tempo 1250000
171840 On ch=1 n=62 v=53
171840 On ch=1 n=70 v=58
171840 On ch=1 n=65 v=53
171840 Par ch=1 c=64 v=127
171840 On ch=2 n=58 v=56
171840 Par ch=2 c=64 v=127
172160 Off ch=2 n=58 v=64
172160 Off ch=1 n=65 v=64
172160 Off ch=1 n=70 v=64
172160 Off ch=1 n=62 v=64
172160 Tempo 1153846
172160 On ch=1 n=65 v=59
172160 On ch=1 n=74 v=64
172160 On ch=1 n=69 v=59
172160 On ch=2 n=62 v=59
172480 Off ch=2 n=62 v=64
172480 Off ch=1 n=69 v=64
172480 Off ch=1 n=74 v=64
172480 Off ch=1 n=65 v=64
172480 Tempo 1304347
172480 On ch=1 n=69 v=62
172480 On ch=1 n=77 v=73
172480 On ch=1 n=74 v=62
172480 On ch=2 n=65 v=62
172800 Off ch=2 n=65 v=64
172800 Off ch=1 n=74 v=64
172800 Off ch=1 n=77 v=64
172800 Off ch=1 n=69 v=64
172800 Tempo 1578947
172800 On ch=1 n=70 v=65
172800 On ch=1 n=81 v=76
172800 On ch=1 n=74 v=65
172800 On ch=2 n=64 v=62
172800 On ch=2 n=55 v=62
173280 Off ch=2 n=48 v=64
173280 Off ch=2 n=43 v=64
173280 Tempo 1463414
173280 On ch=2 n=43 v=56
173280 On ch=2 n=48 v=56
174240 Off ch=2 n=55 v=64
174240 Off ch=2 n=64 v=64
174240 Off ch=1 n=74 v=64
174240 Off ch=1 n=81 v=64
174240 Off ch=1 n=70 v=64
174240 Tempo 1363636
174240 On ch=1 n=58 v=65
174240 On ch=1 n=70 v=65
174240 On ch=1 n=65 v=58
174240 On ch=1 n=62 v=58
174240 On ch=2 n=55 v=61
174240 On ch=2 n=50 v=50
174720 Off ch=2 n=50 v=64
174720 Off ch=2 n=55 v=64
174720 Off ch=1 n=62 v=64
174720 Off ch=1 n=65 v=64
174720 Off ch=1 n=70 v=64
174720 Off ch=1 n=58 v=64
174720 Tempo 1200000
174720 On ch=1 n=62 v=69
174720 On ch=1 n=74 v=69
174720 On ch=1 n=65 v=62
174720 On ch=1 n=69 v=62
174720 On ch=2 n=58 v=65
174720 On ch=2 n=53 v=54
175200 Off ch=2 n=53 v=64
175200 Off ch=2 n=58 v=64
175200 Off ch=1 n=69 v=64
175200 Off ch=1 n=65 v=64
175200 Off ch=1 n=74 v=64
175200 Off ch=1 n=62 v=64
175200 Off ch=2 n=48 v=64
175200 Off ch=2 n=43 v=64
175200 Tempo 1578947
175200 On ch=1 n=65 v=65
175200 On ch=1 n=77 v=76
175200 On ch=1 n=74 v=66
175200 On ch=1 n=69 v=66
175200 On ch=2 n=62 v=70
175200 On ch=2 n=57 v=57
175200 On ch=2 n=58 v=60
175560 Par ch=1 c=64 v=0
175560 Par ch=2 c=64 v=0
175680 Off ch=2 n=58 v=64
175680 Off ch=2 n=57 v=64
175680 Off ch=2 n=62 v=64
175680 Off ch=1 n=69 v=64
175680 Off ch=1 n=74 v=64
175680 Off ch=1 n=77 v=64
175680 Off ch=1 n=65 v=64
175680 Tempo 2068965
175680 On ch=1 n=81 v=83
175680 On ch=1 n=74 v=68
175680 On ch=1 n=69 v=68
175680 On ch=1 n=70 v=68
175680 Par ch=1 c=64 v=127
175680 On ch=2 n=64 v=64
175680 On ch=2 n=58 v=64
175680 On ch=2 n=55 v=64
175680 Par ch=2 c=64 v=127
176160 Tempo 1764705
176160 On ch=2 n=43 v=56
176160 On ch=2 n=48 v=56
177120 Off ch=2 n=55 v=64
177120 Off ch=2 n=58 v=64
177120 Off ch=2 n=64 v=64
177120 Off ch=1 n=70 v=64
177120 Off ch=1 n=69 v=64
177120 Off ch=1 n=74 v=64
177120 Off ch=1 n=81 v=64
177120 On ch=1 n=81 v=74
177120 On ch=1 n=76 v=67
177120 On ch=1 n=69 v=66
177120 On ch=1 n=72 v=66
177120 On ch=2 n=64 v=64
177120 On ch=2 n=58 v=64
177120 On ch=2 n=60 v=64
177480 Par ch=1 c=64 v=0
177480 Par ch=2 c=64 v=0
177600 Off ch=2 n=60 v=64
177600 Off ch=2 n=58 v=64
177600 Off ch=2 n=64 v=64
177600 Off ch=1 n=72 v=64
177600 Off ch=1 n=69 v=64
177600 Off ch=1 n=76 v=64
177600 Off ch=1 n=81 v=64
177600 Tempo 1500000
177600 On ch=1 n=77 v=70
177600 On ch=1 n=72 v=63
177600 On ch=1 n=70 v=59
177600 On ch=1 n=65 v=59
177600 Par ch=1 c=64 v=127
177600 On ch=2 n=60 v=70
177600 On ch=2 n=58 v=59
177600 On ch=2 n=53 v=59
177600 Par ch=2 c=64 v=127
178080 Off ch=2 n=53 v=64
178080 Off ch=2 n=58 v=64
178080 Off ch=1 n=65 v=64
178080 Off ch=1 n=70 v=64
178080 Off ch=2 n=48 v=64
178080 Off ch=2 n=43 v=64
178080 Tempo 1395348
178080 On ch=1 n=69 v=53
178080 On ch=2 n=57 v=53
178560 Off ch=2 n=57 v=64
178560 Off ch=1 n=69 v=64
178560 Tempo 1304347
178560 On ch=1 n=68 v=53
178560 On ch=2 n=56 v=53
179040 Off ch=2 n=56 v=64
179040 Off ch=1 n=68 v=64
179040 Off ch=2 n=60 v=64
179040 Off ch=1 n=72 v=64
179040 Off ch=1 n=77 v=64
179040 Tempo 1500000
179040 On ch=1 n=75 v=59
179040 On ch=1 n=71 v=52
179040 On ch=1 n=67 v=48
179040 On ch=1 n=63 v=43
179040 On ch=2 n=59 v=59
179040 On ch=2 n=55 v=48
179040 On ch=2 n=53 v=48
179400 Par ch=1 c=64 v=0
179400 Par ch=2 c=64 v=0
179520 Off ch=2 n=53 v=64
179520 Off ch=2 n=55 v=64
179520 Off ch=2 n=59 v=64
179520 Off ch=1 n=63 v=64
179520 Off ch=1 n=67 v=64
179520 Off ch=1 n=71 v=64
179520 Off ch=1 n=75 v=64
179520 Tempo 1578947
179520 On ch=1 n=72 v=48
179520 On ch=1 n=67 v=42
179520 On ch=1 n=65 v=44
179520 On ch=1 n=60 v=35
179520 Par ch=1 c=64 v=127
179520 On ch=2 n=55 v=48
179520 On ch=2 n=53 v=44
179520 On ch=2 n=48 v=44
179520 Par ch=2 c=64 v=127
180000 Off ch=2 n=53 v=64
180000 Off ch=1 n=60 v=64
180000 Off ch=1 n=65 v=64
180000 Tempo 1666666
180000 On ch=1 n=64 v=44
180000 On ch=2 n=52 v=44
180480 Off ch=2 n=52 v=64
180480 Off ch=1 n=64 v=64
180480 Off ch=2 n=48 v=64
180480 On ch=1 n=63 v=44
180480 On ch=2 n=51 v=44
180960 Off ch=2 n=51 v=64
180960 Off ch=1 n=63 v=64
180960 Off ch=2 n=55 v=64
180960 Off ch=1 n=67 v=64
180960 Off ch=1 n=72 v=64
180960 Tempo 2222222
180960 On ch=1 n=70 v=52
180960 On ch=1 n=66 v=45
180960 On ch=1 n=62 v=44
180960 On ch=2 n=54 v=37
180960 On ch=2 n=50 v=29
180960 On ch=2 n=48 v=24
180960 On ch=2 n=58 v=45
181320 Par ch=1 c=64 v=0
181320 Par ch=2 c=64 v=0
181440 Off ch=2 n=58 v=64
181440 Off ch=2 n=48 v=64
181440 Off ch=2 n=50 v=64
181440 Off ch=2 n=54 v=64
181440 Off ch=1 n=62 v=64
181440 Off ch=1 n=66 v=64
181440 Off ch=1 n=70 v=64
181440 Tempo 1714285
181440 On ch=1 n=67 v=48
181440 On ch=1 n=60 v=44
181440 On ch=1 n=62 v=44
181440 Par ch=1 c=64 v=127
181440 On ch=2 n=55 v=48
181440 On ch=2 n=50 v=44
181440 On ch=2 n=38 v=44
181440 Par ch=2 c=64 v=127
181920 Off ch=1 n=62 v=64
181920 Off ch=1 n=60 v=64
182400 Off ch=2 n=55 v=64
182400 Off ch=1 n=67 v=64
182400 Tempo 1875000
182400 On ch=1 n=64 v=39
182400 On ch=2 n=52 v=39
183240 Par ch=1 c=64 v=0
183240 Par ch=2 c=64 v=0
183360 Off ch=2 n=52 v=64
183360 Off ch=1 n=64 v=64
183360 Tempo 2142857
183360 TimeSig 2/4 24 8
183360 On ch=1 n=60 v=44
183360 On ch=1 n=62 v=44
183360 On ch=1 n=66 v=48
183360 On ch=2 n=54 v=39
184320 Off ch=2 n=54 v=64
184320 Off ch=1 n=66 v=64
184320 Off ch=1 n=62 v=64
184320 Off ch=1 n=60 v=64
184320 Off ch=2 n=38 v=64
184320 Off ch=2 n=50 v=64
184320 Tempo 5000000
184320 On ch=1 n=58 v=39
184320 On ch=1 n=62 v=39
184320 On ch=1 n=67 v=43
184320 On ch=2 n=55 v=36
184320 On ch=2 n=43 v=29
184320 On ch=2 n=31 v=29
184800 Tempo 1578947
184800 On ch=1 n=79 v=39
185280 Off ch=1 n=79 v=64
185280 Off ch=2 n=31 v=64
185280 Off ch=2 n=43 v=64
185280 Off ch=2 n=55 v=64
185280 Off ch=1 n=67 v=64
185280 Off ch=1 n=62 v=64
185280 Off ch=1 n=58 v=64
185280 TimeSig 4/4 24 8
185280 Tempo 1250000
185280 On ch=1 n=82 v=39
185280 On ch=1 n=79 v=24
185280 Par ch=1 c=64 v=127
185280 Par ch=2 c=64 v=127
185760 Off ch=1 n=79 v=64
185760 Off ch=1 n=82 v=64
185760 Tempo 1153846
185760 On ch=1 n=84 v=45
185760 On ch=1 n=82 v=21
185760 On ch=1 n=79 v=20
186240 Off ch=1 n=84 v=64
186240 Tempo 1111111
186240 On ch=1 n=86 v=48
186720 Off ch=1 n=86 v=64
186720 Off ch=1 n=79 v=64
186720 Off ch=1 n=82 v=64
186720 Tempo 1200000
186720 On ch=1 n=89 v=55
186720 On ch=1 n=82 v=32
186720 On ch=1 n=79 v=31
187200 Off ch=1 n=79 v=64
187200 Off ch=1 n=82 v=64
187200 On ch=1 n=74 v=39
187440 Off ch=1 n=89 v=64
187440 On ch=1 n=79 v=39
187520 On ch=1 n=82 v=39
187560 Off ch=1 n=79 v=64
187600 On ch=1 n=89 v=39
187680 Off ch=1 n=82 v=64
187680 Tempo 1111111
187680 On ch=1 n=82 v=32
187680 On ch=1 n=79 v=31
187680 On ch=2 n=91 v=39
188160 Off ch=2 n=91 v=64
188160 Off ch=1 n=74 v=64
188160 On ch=1 n=88 v=48
188160 On ch=1 n=74 v=39
188200 Off ch=1 n=89 v=64
188640 Off ch=1 n=88 v=64
188640 Off ch=1 n=79 v=64
188640 Off ch=1 n=82 v=64
188640 Tempo 1250000
188640 On ch=1 n=86 v=45
188640 On ch=1 n=82 v=32
188640 On ch=1 n=79 v=31
188640 On ch=2 n=91 v=20
188640 On ch=2 n=89 v=20
189000 Par ch=2 c=64 v=0
189120 Off ch=2 n=89 v=64
189120 Off ch=2 n=91 v=64
189120 Off ch=1 n=86 v=64
189120 Off ch=1 n=74 v=64
189120 Tempo 1224489
189120 On ch=1 n=88 v=42
189120 Par ch=2 c=64 v=127
189600 Off ch=1 n=88 v=64
189600 Off ch=1 n=79 v=64
189600 Off ch=1 n=82 v=64
189600 On ch=1 n=84 v=41
189600 On ch=1 n=82 v=32
189600 On ch=1 n=79 v=31
189936 Par ch=1 c=64 v=0
190080 Off ch=1 n=79 v=64
190080 Off ch=1 n=82 v=64
190080 Off ch=1 n=84 v=64
190080 Tempo 1333333
190080 On ch=1 n=86 v=40
190080 On ch=1 n=62 v=36
190080 Par ch=1 c=64 v=127
190228 On ch=1 n=69 v=36
190266 On ch=1 n=74 v=36
190304 On ch=1 n=77 v=36
190320 Off ch=1 n=86 v=64
190320 Tempo 2000000
190343 On ch=1 n=81 v=36
190368 On ch=1 n=93 v=37
190381 On ch=1 n=86 v=37
190440 Tempo 3000000
190559 Off ch=1 n=77 v=64
190560 Off ch=1 n=86 v=64
190560 Off ch=1 n=93 v=64
190560 Off ch=1 n=81 v=64
190560 Off ch=1 n=74 v=64
190560 Off ch=1 n=69 v=64
190560 Off ch=1 n=62 v=64
190560 Tempo 1333333
190560 On ch=2 n=55 v=37
190560 On ch=2 n=62 v=32
190920 Par ch=2 c=64 v=0
191040 Tempo 1132075
191040 On ch=1 n=65 v=46
191040 On ch=2 n=60 v=34
191040 On ch=2 n=57 v=34
191040 Par ch=2 c=64 v=127
191520 Off ch=2 n=57 v=64
191520 Off ch=2 n=60 v=64
191520 Off ch=1 n=65 v=64
191520 Off ch=2 n=62 v=64
191520 Off ch=2 n=55 v=64
191520 Tempo 1034482
191520 On ch=1 n=69 v=46
191520 On ch=2 n=55 v=37
191520 On ch=2 n=62 v=32
191520 On ch=2 n=65 v=34
191520 On ch=2 n=60 v=34
192000 Off ch=2 n=60 v=64
192000 Off ch=2 n=65 v=64
192000 Off ch=1 n=69 v=64
192000 Tempo 967741
192000 On ch=1 n=65 v=46
192000 On ch=2 n=60 v=34
192000 On ch=2 n=57 v=34
192480 Off ch=2 n=57 v=64
192480 Off ch=2 n=60 v=64
192480 Off ch=1 n=65 v=64
192480 Off ch=2 n=62 v=64
192480 Off ch=2 n=55 v=64
192480 Tempo 937500
192480 On ch=1 n=62 v=46
192480 On ch=2 n=57 v=34
192480 On ch=2 n=53 v=34
192480 On ch=2 n=55 v=37
192480 On ch=2 n=62 v=32
192840 Par ch=2 c=64 v=0
192960 Off ch=2 n=53 v=64
192960 Off ch=2 n=57 v=64
192960 Off ch=1 n=62 v=64
192960 Tempo 1153846
192960 On ch=1 n=65 v=50
192960 On ch=2 n=60 v=39
192960 On ch=2 n=57 v=39
192960 Par ch=2 c=64 v=127
193280 Off ch=2 n=57 v=64
193280 Off ch=2 n=60 v=64
193280 Off ch=1 n=65 v=64
193280 Tempo 1052631
193280 On ch=1 n=69 v=54
193280 On ch=2 n=60 v=42
193280 On ch=2 n=65 v=42
193440 Off ch=2 n=60 v=64
193440 Off ch=2 n=62 v=64
193440 Off ch=2 n=55 v=64
193440 On ch=2 n=55 v=37
193440 On ch=2 n=60 v=32
193600 Off ch=2 n=65 v=64
193600 Off ch=1 n=69 v=64
193600 Tempo 1200000
193600 On ch=1 n=74 v=58
193600 On ch=2 n=65 v=45
193600 On ch=2 n=69 v=45
193824 Par ch=1 c=64 v=0
193920 Off ch=2 n=69 v=64
193920 Off ch=2 n=65 v=64
193920 Off ch=1 n=74 v=64
193920 Off ch=2 n=60 v=64
193920 Off ch=2 n=55 v=64
193920 Tempo 1666666
193920 On ch=1 n=76 v=63
193920 Par ch=1 c=64 v=127
193920 On ch=2 n=69 v=48
193920 On ch=2 n=65 v=48
193920 On ch=2 n=50 v=30
193920 On ch=2 n=59 v=48
194400 Tempo 1000000
194400 On ch=2 n=43 v=41
195360 Off ch=2 n=59 v=64
195360 Off ch=2 n=50 v=64
195360 Off ch=2 n=65 v=64
195360 Off ch=2 n=69 v=64
195360 Off ch=1 n=76 v=64
195360 Tempo 1200000
195360 On ch=1 n=65 v=52
195360 On ch=2 n=60 v=41
195360 On ch=2 n=57 v=41
195840 Off ch=2 n=57 v=64
195840 Off ch=2 n=60 v=64
195840 Off ch=1 n=65 v=64
195840 Off ch=2 n=43 v=64
195840 Tempo 1034482
195840 On ch=1 n=69 v=58
195840 On ch=2 n=65 v=47
195840 On ch=2 n=60 v=47
196320 Off ch=2 n=60 v=64
196320 Off ch=2 n=65 v=64
196320 Off ch=1 n=69 v=64
196320 Tempo 1363636
196320 On ch=1 n=74 v=64
196320 On ch=2 n=69 v=53
196320 On ch=2 n=65 v=53
196680 Par ch=1 c=64 v=0
196680 Par ch=2 c=64 v=0
196800 Off ch=2 n=65 v=64
196800 Off ch=2 n=69 v=64
196800 Off ch=1 n=74 v=64
196800 Tempo 1818181
196800 On ch=1 n=76 v=56
196800 Par ch=1 c=64 v=127
196800 On ch=2 n=69 v=45
196800 On ch=2 n=65 v=45
196800 On ch=2 n=59 v=45
196800 On ch=2 n=50 v=30
196800 Par ch=2 c=64 v=127
197280 Tempo 1200000
197280 On ch=2 n=43 v=41
198240 Off ch=2 n=50 v=64
198240 Off ch=2 n=59 v=64
198240 Off ch=2 n=65 v=64
198240 Off ch=2 n=69 v=64
198240 Off ch=1 n=76 v=64
198240 Tempo 1666666
198240 On ch=1 n=76 v=50
198240 On ch=2 n=69 v=45
198240 On ch=2 n=65 v=45
198240 On ch=2 n=59 v=45
198240 On ch=2 n=55 v=35
198600 Par ch=1 c=64 v=0
198600 Par ch=2 c=64 v=0
198720 Off ch=2 n=55 v=64
198720 Off ch=2 n=59 v=64
198720 Off ch=2 n=65 v=64
198720 Off ch=2 n=69 v=64
198720 Off ch=1 n=76 v=64
198720 Off ch=2 n=43 v=64
198720 Tempo 1363636
198720 On ch=1 n=72 v=41
198720 Par ch=1 c=64 v=127
198720 On ch=2 n=55 v=45
198720 On ch=2 n=48 v=45
198720 Par ch=2 c=64 v=127
199200 Off ch=2 n=48 v=64
199200 Off ch=2 n=55 v=64
199200 Tempo 1224489
199200 On ch=2 n=67 v=27
199200 On ch=2 n=65 v=27
199680 Off ch=2 n=65 v=64
199680 Off ch=2 n=67 v=64
199680 Tempo 1621621
199680 On ch=1 n=79 v=28
199680 On ch=1 n=77 v=28
200160 Off ch=1 n=77 v=64
200160 Off ch=1 n=79 v=64
200160 Off ch=1 n=72 v=64
200160 Tempo 1304347
200160 On ch=1 n=72 v=45
200160 On ch=2 n=64 v=32
200520 Par ch=1 c=64 v=0
200520 Par ch=2 c=64 v=0
200640 Off ch=2 n=64 v=64
200640 Off ch=1 n=72 v=64
200640 Tempo 1176470
200640 On ch=1 n=75 v=43
200640 On ch=1 n=72 v=32
200640 Par ch=1 c=64 v=127
200640 On ch=2 n=63 v=32
200640 Par ch=2 c=64 v=127
201120 Off ch=2 n=63 v=64
201120 Off ch=1 n=72 v=64
201120 Off ch=1 n=75 v=64
201120 Tempo 1132075
201120 On ch=1 n=77 v=50
201120 On ch=1 n=75 v=32
201120 On ch=2 n=74 v=32
201600 Off ch=2 n=74 v=64
201600 Off ch=1 n=77 v=64
201600 On ch=1 n=79 v=50
201600 On ch=2 n=72 v=32
202080 Off ch=2 n=72 v=64
202080 Off ch=1 n=79 v=64
202080 Off ch=1 n=75 v=64
202080 On ch=1 n=82 v=50
202080 On ch=1 n=75 v=32
202080 On ch=1 n=72 v=32
202080 On ch=2 n=70 v=32
202560 Off ch=2 n=70 v=64
202560 Off ch=1 n=72 v=64
202560 Off ch=1 n=75 v=64
202560 Off ch=1 n=82 v=64
202560 Tempo 1071428
202560 On ch=2 n=67 v=32
202688 On ch=1 n=70 v=41
202784 On ch=1 n=72 v=43
202880 Off ch=1 n=70 v=64
202880 On ch=1 n=75 v=45
202976 On ch=1 n=82 v=47
203040 Off ch=2 n=67 v=64
203040 Tempo 1016949
203040 On ch=2 n=84 v=32
203168 Off ch=1 n=82 v=64
203400 Par ch=1 c=64 v=0
203417 Off ch=1 n=75 v=64
203417 Off ch=1 n=72 v=64
203520 Off ch=2 n=84 v=64
203520 Tempo 1200000
203520 On ch=1 n=81 v=53
203520 On ch=1 n=69 v=32
203544 Par ch=1 c=64 v=127
204000 Off ch=1 n=69 v=64
204000 Off ch=1 n=81 v=64
204000 Tempo 1132075
204000 On ch=1 n=79 v=53
204000 On ch=1 n=75 v=34
204000 On ch=1 n=67 v=32
204000 On ch=1 n=72 v=32
204000 On ch=2 n=84 v=23
204000 On ch=2 n=82 v=23
204360 Par ch=2 c=64 v=0
204480 Off ch=2 n=82 v=64
204480 Off ch=2 n=84 v=64
204480 Off ch=1 n=67 v=64
204480 Off ch=1 n=79 v=64
204480 Tempo 1034482
204480 On ch=1 n=81 v=53
204480 On ch=2 n=65 v=32
204480 Par ch=2 c=64 v=127
204800 Off ch=2 n=65 v=64
204800 On ch=2 n=60 v=32
204960 Off ch=1 n=81 v=64
204960 Off ch=1 n=72 v=64
204960 Off ch=1 n=75 v=64
204960 Tempo 1016949
204960 On ch=1 n=77 v=53
204960 On ch=1 n=75 v=34
204960 On ch=1 n=72 v=32
204960 On ch=1 n=69 v=32
205120 Off ch=2 n=60 v=64
205120 On ch=2 n=65 v=32
205344 Par ch=1 c=64 v=0
205440 Off ch=2 n=65 v=64
205440 Off ch=1 n=69 v=64
205440 Off ch=1 n=72 v=64
205440 Off ch=1 n=75 v=64
205440 Off ch=1 n=77 v=64
205440 Tempo 1500000
205440 On ch=1 n=79 v=49
205440 Par ch=1 c=64 v=127
205440 On ch=2 n=55 v=32
205488 On ch=1 n=62 v=36
205536 On ch=1 n=67 v=36
205584 On ch=1 n=70 v=36
205632 On ch=1 n=74 v=36
205680 Off ch=1 n=79 v=64
205680 On ch=1 n=79 v=36
205728 On ch=1 n=86 v=37
205920 Off ch=1 n=86 v=64
205920 Off ch=1 n=79 v=64
205920 Off ch=1 n=74 v=64
205920 Off ch=1 n=70 v=64
205920 Off ch=1 n=67 v=64
205920 Off ch=1 n=62 v=64
205920 Tempo 1363636
205920 On ch=2 n=36 v=32
205920 On ch=2 n=43 v=32
206280 Par ch=2 c=64 v=0
206400 Off ch=2 n=55 v=64
206400 Tempo 1132075
206400 On ch=1 n=62 v=46
206400 On ch=1 n=70 v=52
206400 On ch=1 n=65 v=46
206400 On ch=2 n=58 v=46
206400 Par ch=2 c=64 v=127
206880 Off ch=2 n=58 v=64
206880 Off ch=1 n=65 v=64
206880 Off ch=1 n=70 v=64
206880 Off ch=1 n=62 v=64
206880 On ch=1 n=65 v=46
206880 On ch=1 n=74 v=52
206880 On ch=1 n=69 v=46
206880 On ch=2 n=62 v=46
207360 Off ch=2 n=62 v=64
207360 Off ch=1 n=69 v=64
207360 Off ch=1 n=74 v=64
207360 Off ch=1 n=65 v=64
207360 Tempo 1153846
207360 On ch=1 n=62 v=46
207360 On ch=1 n=70 v=52
207360 On ch=1 n=65 v=46
207360 On ch=2 n=58 v=46
207840 Off ch=2 n=58 v=64
207840 Off ch=1 n=65 v=64
207840 Off ch=1 n=70 v=64
207840 Off ch=1 n=62 v=64
207840 Off ch=2 n=43 v=64
207840 Off ch=2 n=36 v=64
207840 Tempo 1000000
207840 On ch=1 n=58 v=46
207840 On ch=1 n=67 v=52
207840 On ch=1 n=62 v=46
207840 On ch=2 n=36 v=51
207840 On ch=2 n=43 v=51
207840 On ch=2 n=55 v=46
208200 Par ch=1 c=64 v=0
208200 Par ch=2 c=64 v=0
208320 Off ch=2 n=55 v=64
208320 Off ch=1 n=62 v=64
208320 Off ch=1 n=67 v=64
208320 Off ch=1 n=58 v=64
208320 Tempo 1250000
208320 On ch=1 n=62 v=48
208320 On ch=1 n=70 v=57
208320 On ch=1 n=65 v=48
208320 Par ch=1 c=64 v=127
208320 On ch=2 n=58 v=48
208320 Par ch=2 c=64 v=127
208640 Off ch=2 n=58 v=64
208640 Off ch=1 n=65 v=64
208640 Off ch=1 n=70 v=64
208640 Off ch=1 n=62 v=64
208640 Tempo 1111111
208640 On ch=1 n=65 v=51
208640 On ch=1 n=74 v=60
208640 On ch=1 n=69 v=51
208640 On ch=2 n=62 v=51
208960 Off ch=2 n=62 v=64
208960 Off ch=1 n=69 v=64
208960 Off ch=1 n=74 v=64
208960 Off ch=1 n=65 v=64
208960 Tempo 1250000
208960 On ch=1 n=69 v=54
208960 On ch=1 n=77 v=63
208960 On ch=1 n=74 v=54
208960 On ch=2 n=58 v=45
208960 On ch=2 n=65 v=54
209280 Off ch=2 n=65 v=64
209280 Off ch=2 n=58 v=64
209280 Off ch=1 n=74 v=64
209280 Off ch=1 n=77 v=64
209280 Off ch=1 n=69 v=64
209280 Tempo 1621621
209280 On ch=1 n=70 v=57
209280 On ch=1 n=81 v=66
209280 On ch=1 n=74 v=57
209280 On ch=2 n=64 v=57
209280 On ch=2 n=55 v=57
209760 Off ch=2 n=43 v=64
209760 Off ch=2 n=36 v=64
209760 Tempo 1621621
209760 On ch=2 n=36 v=51
209760 On ch=2 n=43 v=51
210720 Off ch=2 n=55 v=64
210720 Off ch=2 n=64 v=64
210720 Off ch=1 n=74 v=64
210720 Off ch=1 n=81 v=64
210720 Off ch=1 n=70 v=64
210720 Tempo 1363636
210720 On ch=1 n=58 v=58
210720 On ch=1 n=70 v=58
210720 On ch=1 n=65 v=51
210720 On ch=1 n=62 v=51
210720 On ch=2 n=55 v=61
210720 On ch=2 n=50 v=52
211200 Off ch=2 n=50 v=64
211200 Off ch=2 n=55 v=64
211200 Off ch=1 n=62 v=64
211200 Off ch=1 n=65 v=64
211200 Off ch=1 n=70 v=64
211200 Off ch=1 n=58 v=64
211200 Tempo 1153846
211200 On ch=1 n=62 v=62
211200 On ch=1 n=74 v=62
211200 On ch=1 n=65 v=55
211200 On ch=1 n=69 v=55
211200 On ch=2 n=58 v=65
211200 On ch=2 n=53 v=56
211680 Off ch=2 n=53 v=64
211680 Off ch=2 n=58 v=64
211680 Off ch=1 n=69 v=64
211680 Off ch=1 n=65 v=64
211680 Off ch=1 n=74 v=64
211680 Off ch=1 n=62 v=64
211680 Tempo 1500000
211680 On ch=1 n=65 v=67
211680 On ch=1 n=77 v=67
211680 On ch=1 n=74 v=59
211680 On ch=1 n=69 v=59
211680 On ch=2 n=62 v=70
211680 On ch=2 n=57 v=61
211680 On ch=2 n=58 v=61
212040 Par ch=1 c=64 v=0
212040 Par ch=2 c=64 v=0
212160 Off ch=2 n=58 v=64
212160 Off ch=2 n=57 v=64
212160 Off ch=2 n=62 v=64
212160 Off ch=1 n=69 v=64
212160 Off ch=1 n=74 v=64
212160 Off ch=1 n=77 v=64
212160 Off ch=1 n=65 v=64
212160 Off ch=2 n=43 v=64
212160 Off ch=2 n=36 v=64
212160 Tempo 2142857
212160 On ch=1 n=81 v=68
212160 On ch=1 n=74 v=60
212160 On ch=1 n=69 v=60
212160 On ch=1 n=70 v=60
212160 Par ch=1 c=64 v=127
212160 On ch=2 n=64 v=66
212160 On ch=2 n=58 v=60
212160 On ch=2 n=55 v=60
212160 Par ch=2 c=64 v=127
212640 Tempo 1714285
212640 On ch=2 n=36 v=51
212640 On ch=2 n=43 v=51
213600 Off ch=2 n=43 v=64
213600 Off ch=2 n=36 v=64
213600 Off ch=2 n=55 v=64
213600 Off ch=2 n=58 v=64
213600 Off ch=2 n=64 v=64
213600 Off ch=1 n=70 v=64
213600 Off ch=1 n=69 v=64
213600 Off ch=1 n=74 v=64
213600 Off ch=1 n=81 v=64
213600 Tempo 1621621
213600 On ch=1 n=81 v=68
213600 On ch=1 n=76 v=61
213600 On ch=1 n=69 v=60
213600 On ch=1 n=72 v=60
213600 On ch=2 n=64 v=68
213600 On ch=2 n=58 v=62
213600 On ch=2 n=60 v=62
213960 Par ch=1 c=64 v=0
213960 Par ch=2 c=64 v=0
214080 Off ch=2 n=60 v=64
214080 Off ch=2 n=58 v=64
214080 Off ch=2 n=64 v=64
214080 Off ch=1 n=72 v=64
214080 Off ch=1 n=69 v=64
214080 Off ch=1 n=76 v=64
214080 Off ch=1 n=81 v=64
214080 Tempo 1666666
214080 On ch=1 n=77 v=67
214080 On ch=1 n=72 v=60
214080 On ch=1 n=70 v=56
214080 On ch=1 n=65 v=56
214080 Par ch=1 c=64 v=127
214080 On ch=2 n=60 v=70
214080 On ch=2 n=58 v=63
214080 On ch=2 n=53 v=63
214080 Par ch=2 c=64 v=127
214560 Off ch=2 n=53 v=64
214560 Off ch=2 n=58 v=64
214560 Off ch=1 n=65 v=64
214560 Off ch=1 n=70 v=64
214560 Tempo 1428571
214560 On ch=1 n=69 v=53
214560 On ch=2 n=57 v=63
215040 Off ch=2 n=57 v=64
215040 Off ch=1 n=69 v=64
215040 Tempo 1304347
215040 On ch=1 n=68 v=53
215040 On ch=2 n=56 v=60
215520 Off ch=2 n=56 v=64
215520 Off ch=1 n=68 v=64
215520 Off ch=2 n=60 v=64
215520 Off ch=1 n=72 v=64
215520 Off ch=1 n=77 v=64
215520 Tempo 1500000
215520 On ch=1 n=75 v=59
215520 On ch=1 n=71 v=52
215520 On ch=1 n=67 v=48
215520 On ch=1 n=63 v=43
215520 On ch=2 n=55 v=58
215520 On ch=2 n=53 v=58
215520 On ch=2 n=59 v=58
215880 Par ch=1 c=64 v=0
215880 Par ch=2 c=64 v=0
216000 Off ch=2 n=59 v=64
216000 Off ch=2 n=53 v=64
216000 Off ch=2 n=55 v=64
216000 Off ch=1 n=63 v=64
216000 Off ch=1 n=67 v=64
216000 Off ch=1 n=71 v=64
216000 Off ch=1 n=75 v=64
216000 Tempo 1578947
216000 On ch=1 n=72 v=48
216000 On ch=1 n=67 v=42
216000 On ch=1 n=65 v=44
216000 On ch=1 n=60 v=35
216000 Par ch=1 c=64 v=127
216000 On ch=2 n=55 v=55
216000 On ch=2 n=53 v=55
216000 On ch=2 n=48 v=47
216000 Par ch=2 c=64 v=127
216480 Off ch=2 n=53 v=64
216480 Off ch=2 n=55 v=64
216480 Off ch=1 n=60 v=64
216480 Off ch=1 n=65 v=64
216480 Tempo 1428571
216480 On ch=1 n=64 v=44
216480 On ch=2 n=52 v=54
216960 Off ch=2 n=52 v=64
216960 Off ch=1 n=64 v=64
216960 Off ch=2 n=48 v=64
216960 Tempo 1666666
216960 On ch=1 n=63 v=44
216960 On ch=2 n=51 v=51
217368 Par ch=1 c=64 v=0
217416 Par ch=2 c=64 v=0
217440 Off ch=2 n=51 v=64
217440 Off ch=1 n=63 v=64
217440 Off ch=1 n=67 v=64
217440 Off ch=1 n=72 v=64
217440 Tempo 2400000
217440 On ch=1 n=70 v=52
217440 On ch=1 n=66 v=45
217440 On ch=1 n=62 v=44
217440 On ch=1 n=58 v=44
217440 On ch=2 n=50 v=48
217440 On ch=2 n=54 v=48
217440 On ch=2 n=48 v=47
217920 Off ch=2 n=48 v=64
217920 Off ch=2 n=54 v=64
217920 Off ch=2 n=50 v=64
217920 Off ch=1 n=58 v=64
217920 Off ch=1 n=62 v=64
217920 Off ch=1 n=66 v=64
217920 Off ch=1 n=70 v=64
217920 Tempo 1714285
217920 On ch=1 n=67 v=48
217920 On ch=1 n=60 v=44
217920 On ch=1 n=62 v=44
217920 Par ch=1 c=64 v=127
217920 On ch=2 n=55 v=45
217920 On ch=2 n=38 v=39
217920 On ch=2 n=50 v=39
217920 Par ch=2 c=64 v=127
218400 Off ch=1 n=62 v=64
218400 Off ch=1 n=60 v=64
218880 Off ch=2 n=55 v=64
218880 Off ch=1 n=67 v=64
218880 Tempo 1935483
218880 On ch=1 n=64 v=39
218880 On ch=2 n=52 v=45
219720 Par ch=1 c=64 v=0
219720 Par ch=2 c=64 v=0
219840 Off ch=2 n=52 v=64
219840 Off ch=1 n=64 v=64
219840 Tempo 2608695
219840 TimeSig 2/4 24 8
219840 On ch=1 n=60 v=42
219840 On ch=1 n=62 v=42
219840 On ch=1 n=66 v=42
219840 On ch=2 n=54 v=39
220560 Off ch=2 n=50 v=64
220560 Off ch=2 n=38 v=64
220800 Off ch=2 n=54 v=64
220800 Off ch=1 n=66 v=64
220800 Off ch=1 n=62 v=64
220800 Off ch=1 n=60 v=64
220800 Tempo 5454545
220800 On ch=1 n=58 v=26
220800 On ch=1 n=62 v=26
220800 On ch=1 n=67 v=26
220800 On ch=2 n=55 v=26
220800 On ch=2 n=31 v=26
220800 On ch=2 n=43 v=26
221520 Off ch=2 n=43 v=64
221520 Off ch=2 n=55 v=64
221520 Tempo 5000000
221680 On ch=2 n=43 v=39
221720 On ch=2 n=50 v=39
221740 On ch=2 n=55 v=39
221760 Off ch=2 n=31 v=64
221760 Off ch=1 n=67 v=64
221760 Off ch=1 n=62 v=64
221760 Off ch=1 n=58 v=64
221760 Tempo 1666666
221760 TimeSig 4/4 24 8
221760 On ch=1 n=79 v=54
221760 Par ch=1 c=64 v=127
221760 On ch=2 n=62 v=39
221760 Par ch=2 c=64 v=127
222000 Tempo 1538461
222000 On ch=2 n=71 v=35
222240 Off ch=2 n=71 v=64
222240 Tempo 1363636
222240 On ch=2 n=74 v=35
222480 Off ch=2 n=74 v=64
222480 On ch=2 n=71 v=35
222640 Off ch=2 n=43 v=64
222680 Off ch=2 n=50 v=64
222700 Off ch=2 n=55 v=64
222720 Off ch=2 n=71 v=64
222720 Off ch=2 n=62 v=64
222720 Tempo 1304347
222720 On ch=2 n=62 v=39
222720 On ch=2 n=67 v=39
222720 On ch=2 n=59 v=39
222960 On ch=2 n=71 v=35
223200 Off ch=2 n=71 v=64
223200 Tempo 1250000
223200 On ch=2 n=74 v=35
223440 Off ch=2 n=74 v=64
223440 On ch=2 n=71 v=35
223440 On ch=2 n=36 v=39
223560 Par ch=1 c=64 v=0
223560 On ch=2 n=43 v=39
223560 Par ch=2 c=64 v=0
223680 Off ch=2 n=71 v=64
223680 Off ch=2 n=59 v=64
223680 Off ch=2 n=67 v=64
223680 Off ch=2 n=62 v=64
223680 Tempo 1200000
223680 Par ch=1 c=64 v=127
223680 On ch=2 n=64 v=39
223680 On ch=2 n=52 v=39
223680 Par ch=2 c=64 v=127
223920 On ch=2 n=71 v=35
224160 Off ch=2 n=71 v=64
224160 Off ch=1 n=79 v=64
224160 On ch=1 n=81 v=58
224160 On ch=2 n=76 v=35
224400 Off ch=2 n=76 v=64
224400 Off ch=2 n=36 v=64
224400 On ch=2 n=71 v=35
224520 Off ch=2 n=43 v=64
224640 Off ch=2 n=71 v=64
224640 Off ch=1 n=81 v=64
224640 Off ch=2 n=52 v=64
224640 Off ch=2 n=64 v=64
224640 Tempo 1250000
224640 On ch=1 n=78 v=58
224640 On ch=2 n=64 v=39
224640 On ch=2 n=67 v=39
224640 On ch=2 n=59 v=39
224880 On ch=2 n=71 v=35
225120 Off ch=2 n=71 v=64
225120 Off ch=1 n=78 v=64
225120 On ch=1 n=76 v=58
225360 On ch=2 n=71 v=35
225360 On ch=2 n=38 v=39
225480 Par ch=1 c=64 v=0
225480 On ch=2 n=47 v=39
225480 Par ch=2 c=64 v=0
225600 Off ch=2 n=71 v=64
225600 Off ch=1 n=76 v=64
225600 Off ch=2 n=59 v=64
225600 Off ch=2 n=67 v=64
225600 Off ch=2 n=64 v=64
225600 Tempo 1200000
225600 On ch=1 n=74 v=53
225600 Par ch=1 c=64 v=127
225600 On ch=2 n=54 v=39
225600 On ch=2 n=59 v=39
225600 Par ch=2 c=64 v=127
225840 On ch=2 n=66 v=35
226080 Off ch=2 n=66 v=64
226080 Tempo 1153846
226080 On ch=2 n=71 v=35
226320 Off ch=2 n=71 v=64
226320 Off ch=2 n=38 v=64
226320 On ch=2 n=66 v=35
226440 Off ch=2 n=47 v=64
226560 Off ch=2 n=66 v=64
226560 Off ch=2 n=59 v=64
226560 Off ch=2 n=54 v=64
226560 Off ch=1 n=74 v=64
226560 Tempo 1200000
226560 On ch=1 n=76 v=58
226560 On ch=2 n=66 v=35
226560 On ch=2 n=59 v=39
226800 Off ch=2 n=66 v=64
226800 On ch=2 n=66 v=35
227040 Off ch=2 n=66 v=64
227040 Off ch=1 n=76 v=64
227040 Tempo 1250000
227040 On ch=1 n=78 v=58
227040 On ch=2 n=71 v=35
227280 Off ch=2 n=71 v=64
227280 On ch=2 n=66 v=35
227280 On ch=2 n=40 v=39
227400 Par ch=1 c=64 v=0
227400 On ch=2 n=47 v=39
227400 Par ch=2 c=64 v=0
227520 Off ch=2 n=66 v=64
227520 Off ch=1 n=78 v=64
227520 Off ch=2 n=59 v=64
227520 Tempo 1200000
227520 On ch=1 n=78 v=58
227520 Par ch=1 c=64 v=127
227520 On ch=2 n=64 v=35
227520 On ch=2 n=55 v=39
227520 Par ch=2 c=64 v=127
227760 Off ch=2 n=64 v=64
227760 On ch=2 n=71 v=35
228000 Off ch=2 n=71 v=64
228000 Off ch=1 n=78 v=64
228000 Tempo 1224489
228000 On ch=1 n=76 v=58
228240 Off ch=2 n=40 v=64
228240 On ch=2 n=71 v=35
228360 Off ch=2 n=47 v=64
228480 Off ch=2 n=71 v=64
228480 Off ch=1 n=76 v=64
228480 Off ch=2 n=55 v=64
228480 Tempo 1250000
228480 On ch=1 n=76 v=58
228480 On ch=2 n=64 v=35
228480 On ch=2 n=59 v=39
228480 On ch=2 n=67 v=39
228720 Off ch=2 n=64 v=64
228720 On ch=2 n=71 v=35
228960 Off ch=2 n=71 v=64
228960 On ch=2 n=76 v=35
229200 Off ch=2 n=76 v=64
229200 On ch=2 n=71 v=35
229200 On ch=2 n=48 v=39
229320 Par ch=1 c=64 v=0
229320 On ch=2 n=55 v=39
229320 Par ch=2 c=64 v=0
229360 Off ch=1 n=76 v=64
229440 Off ch=2 n=71 v=64
229440 Off ch=2 n=67 v=64
229440 Off ch=2 n=59 v=64
229440 Tempo 1200000
229440 On ch=1 n=83 v=58
229440 Par ch=1 c=64 v=127
229440 On ch=2 n=64 v=39
229440 On ch=2 n=71 v=35
229440 Par ch=2 c=64 v=127
229680 Off ch=2 n=71 v=64
229680 On ch=2 n=72 v=35
229920 Off ch=2 n=72 v=64
229920 Tempo 1153846
229920 On ch=2 n=76 v=35
230160 Off ch=2 n=76 v=64
230160 Off ch=2 n=48 v=64
230160 On ch=2 n=72 v=35
230280 Off ch=2 n=55 v=64
230400 Off ch=2 n=72 v=64
230400 Off ch=2 n=64 v=64
230400 Tempo 1200000
230400 On ch=2 n=64 v=39
230400 On ch=2 n=72 v=35
230400 On ch=2 n=71 v=35
230640 Off ch=2 n=71 v=64
230640 Off ch=2 n=72 v=64
230640 On ch=2 n=72 v=35
230880 Off ch=2 n=72 v=64
230880 On ch=2 n=76 v=35
231120 Off ch=2 n=76 v=64
231120 On ch=2 n=45 v=39
231120 On ch=2 n=72 v=35
231240 Par ch=1 c=64 v=0
231240 On ch=2 n=52 v=39
231240 Par ch=2 c=64 v=0
231360 Off ch=2 n=72 v=64
231360 Off ch=2 n=64 v=64
231360 Tempo 1111111
231360 Par ch=1 c=64 v=127
231360 On ch=2 n=60 v=39
231360 On ch=2 n=71 v=35
231360 Par ch=2 c=64 v=127
231600 Off ch=2 n=71 v=64
231600 On ch=2 n=72 v=35
231840 Off ch=2 n=72 v=64
231840 Off ch=1 n=83 v=64
231840 Tempo 1176470
231840 On ch=1 n=84 v=58
231840 On ch=2 n=76 v=35
232080 Off ch=2 n=76 v=64
232080 Off ch=2 n=45 v=64
232080 On ch=2 n=72 v=35
232200 Off ch=2 n=52 v=64
232320 Off ch=2 n=72 v=64
232320 Off ch=1 n=84 v=64
232320 Off ch=2 n=60 v=64
232320 On ch=1 n=81 v=58
232320 On ch=2 n=64 v=39
232320 On ch=2 n=72 v=35
232320 On ch=2 n=67 v=35
232320 On ch=2 n=69 v=35
232560 Off ch=2 n=69 v=64
232560 Off ch=2 n=67 v=64
232560 Off ch=2 n=72 v=64
232560 On ch=2 n=72 v=35
232800 Off ch=2 n=72 v=64
232800 Off ch=1 n=81 v=64
232800 Tempo 1250000
232800 On ch=1 n=79 v=58
232800 On ch=2 n=76 v=35
233040 Off ch=2 n=76 v=64
233040 On ch=2 n=72 v=35
233040 On ch=2 n=47 v=39
233160 Par ch=1 c=64 v=0
233160 On ch=2 n=54 v=39
233160 Par ch=2 c=64 v=0
233280 Off ch=2 n=72 v=64
233280 Off ch=1 n=79 v=64
233280 Off ch=2 n=64 v=64
233280 Tempo 1224489
233280 On ch=1 n=78 v=58
233280 Par ch=1 c=64 v=127
233280 On ch=2 n=62 v=39
233280 On ch=2 n=66 v=35
233280 Par ch=2 c=64 v=127
233520 Off ch=2 n=66 v=64
233520 On ch=2 n=71 v=35
233760 Off ch=2 n=71 v=64
233760 Tempo 1176470
233760 On ch=2 n=74 v=35
234000 Off ch=2 n=74 v=64
234000 Off ch=2 n=47 v=64
234000 On ch=2 n=71 v=35
234120 Off ch=2 n=54 v=64
234240 Off ch=2 n=71 v=64
234240 Off ch=2 n=62 v=64
234240 Off ch=1 n=78 v=64
234240 Tempo 1250000
234240 On ch=1 n=79 v=58
234240 On ch=2 n=71 v=35
234240 On ch=2 n=67 v=35
234240 On ch=2 n=66 v=39
234240 On ch=2 n=62 v=39
234480 Off ch=2 n=67 v=64
234480 Off ch=2 n=71 v=64
234480 On ch=2 n=71 v=35
234720 Off ch=2 n=71 v=64
234720 Off ch=1 n=79 v=64
234720 On ch=1 n=81 v=58
234720 On ch=2 n=74 v=35
234720 On ch=2 n=69 v=35
234960 Off ch=2 n=69 v=64
234960 Off ch=2 n=74 v=64
234960 On ch=2 n=43 v=39
234960 On ch=2 n=71 v=35
235080 Par ch=1 c=64 v=0
235080 On ch=2 n=50 v=39
235080 Par ch=2 c=64 v=0
235200 Off ch=2 n=71 v=64
235200 Off ch=2 n=62 v=64
235200 Off ch=2 n=66 v=64
235200 Tempo 1111111
235200 Par ch=1 c=64 v=127
235200 On ch=2 n=59 v=39
235200 On ch=2 n=66 v=35
235200 Par ch=2 c=64 v=127
235440 Off ch=2 n=66 v=64
235440 On ch=2 n=71 v=35
235680 Off ch=2 n=71 v=64
235680 Off ch=1 n=81 v=64
235680 Tempo 1176470
235680 On ch=1 n=83 v=58
235680 On ch=2 n=74 v=35
235920 Off ch=2 n=74 v=64
235920 Off ch=2 n=43 v=64
235920 On ch=2 n=71 v=35
236040 Off ch=2 n=50 v=64
236160 Off ch=2 n=71 v=64
236160 Off ch=1 n=83 v=64
236160 Off ch=2 n=59 v=64
236160 On ch=1 n=79 v=58
236160 On ch=2 n=71 v=35
236160 On ch=2 n=66 v=39
236160 On ch=2 n=62 v=39
236160 On ch=2 n=67 v=35
236400 Off ch=2 n=67 v=64
236400 Off ch=2 n=71 v=64
236400 On ch=2 n=71 v=35
236640 Off ch=2 n=71 v=64
236640 Off ch=1 n=79 v=64
236640 Tempo 1200000
236640 On ch=1 n=78 v=58
236640 On ch=2 n=74 v=35
236880 Off ch=2 n=74 v=64
236880 On ch=2 n=71 v=35
236880 On ch=2 n=45 v=39
237000 Par ch=1 c=64 v=0
237000 On ch=2 n=52 v=39
237000 Par ch=2 c=64 v=0
237120 Off ch=2 n=71 v=64
237120 Off ch=1 n=78 v=64
237120 Off ch=2 n=62 v=64
237120 Off ch=2 n=66 v=64
237120 Tempo 1250000
237120 On ch=1 n=76 v=58
237120 Par ch=1 c=64 v=127
237120 On ch=2 n=60 v=39
237120 On ch=2 n=64 v=35
237120 Par ch=2 c=64 v=127
237360 Off ch=2 n=64 v=64
237360 On ch=2 n=71 v=35
237600 Off ch=2 n=71 v=64
237600 On ch=2 n=72 v=35
237840 Off ch=2 n=72 v=64
237840 Off ch=2 n=45 v=64
237840 On ch=2 n=71 v=35
237960 Off ch=2 n=52 v=64
238080 Off ch=2 n=71 v=64
238080 Off ch=2 n=60 v=64
238080 Off ch=1 n=76 v=64
238080 On ch=1 n=78 v=58
238080 On ch=2 n=69 v=35
238080 On ch=2 n=66 v=35
238080 On ch=2 n=64 v=39
238080 On ch=2 n=60 v=39
238320 Off ch=2 n=66 v=64
238320 Off ch=2 n=69 v=64
238320 On ch=2 n=71 v=35
238560 Off ch=2 n=71 v=64
238560 Off ch=1 n=78 v=64
238560 On ch=1 n=79 v=58
238560 On ch=2 n=72 v=35
238560 On ch=2 n=67 v=35
238800 Off ch=2 n=67 v=64
238800 Off ch=2 n=72 v=64
238800 On ch=2 n=42 v=39
238800 On ch=2 n=71 v=35
238920 Par ch=1 c=64 v=0
238920 On ch=2 n=48 v=39
238920 Par ch=2 c=64 v=0
239040 Off ch=2 n=71 v=64
239040 Off ch=2 n=60 v=64
239040 Off ch=2 n=64 v=64
239040 Tempo 1111111
239040 Par ch=1 c=64 v=127
239040 On ch=2 n=57 v=39
239040 On ch=2 n=64 v=35
239040 Par ch=2 c=64 v=127
239280 Off ch=2 n=64 v=64
239280 On ch=2 n=69 v=35
239520 Off ch=2 n=69 v=64
239520 Off ch=1 n=79 v=64
239520 Tempo 1304347
239520 On ch=1 n=81 v=58
239520 On ch=2 n=72 v=35
239760 Off ch=2 n=72 v=64
239760 Off ch=2 n=42 v=64
239760 On ch=2 n=69 v=35
239880 Off ch=2 n=48 v=64
240000 Off ch=2 n=69 v=64
240000 Off ch=1 n=81 v=64
240000 Off ch=2 n=57 v=64
240000 Tempo 1250000
240000 On ch=1 n=78 v=58
240000 On ch=2 n=69 v=35
240000 On ch=2 n=64 v=39
240000 On ch=2 n=60 v=39
240000 On ch=2 n=66 v=35
240240 Off ch=2 n=66 v=64
240240 Off ch=2 n=69 v=64
240240 On ch=2 n=69 v=35
240480 Off ch=2 n=69 v=64
240480 Off ch=1 n=78 v=64
240480 Tempo 1333333
240480 On ch=1 n=76 v=58
240480 On ch=2 n=72 v=35
240720 Off ch=2 n=72 v=64
240720 On ch=2 n=69 v=35
240720 On ch=2 n=47 v=39
240840 Par ch=1 c=64 v=0
240840 On ch=2 n=54 v=39
240840 Par ch=2 c=64 v=0
240960 Off ch=2 n=69 v=64
240960 Off ch=1 n=76 v=64
240960 Off ch=2 n=60 v=64
240960 Off ch=2 n=64 v=64
240960 Tempo 1500000
240960 On ch=1 n=78 v=58
240960 Par ch=1 c=64 v=127
240960 On ch=2 n=62 v=39
240960 On ch=2 n=66 v=39
240960 Par ch=2 c=64 v=127
241200 Off ch=2 n=66 v=64
241200 On ch=2 n=71 v=39
241440 Off ch=2 n=71 v=64
241440 Tempo 1363636
241440 On ch=2 n=74 v=39
241680 Off ch=2 n=74 v=64
241680 Off ch=2 n=47 v=64
241680 On ch=2 n=71 v=39
241800 Off ch=2 n=54 v=64
241920 Off ch=2 n=71 v=64
241920 Off ch=2 n=62 v=64
241920 Tempo 1276595
241920 On ch=2 n=62 v=39
241920 On ch=2 n=66 v=39
241920 On ch=2 n=59 v=39
242160 Off ch=2 n=62 v=64
242160 On ch=2 n=71 v=39
242400 Off ch=2 n=71 v=64
242400 Tempo 1395348
242400 On ch=2 n=74 v=39
242640 Off ch=2 n=74 v=64
242640 On ch=2 n=71 v=39
242760 Par ch=1 c=64 v=0
242760 Par ch=2 c=64 v=0
242880 Off ch=2 n=71 v=64
242880 Off ch=2 n=59 v=64
242880 Off ch=2 n=66 v=64
242880 Off ch=1 n=78 v=64
242880 Par ch=1 c=64 v=127
242880 On ch=2 n=72 v=39
242880 On ch=2 n=69 v=39
242880 On ch=2 n=42 v=39
243120 Tempo 1463414
243120 On ch=2 n=64 v=42
243360 Off ch=2 n=64 v=64
243360 Off ch=2 n=69 v=64
243360 Off ch=2 n=72 v=64
243360 Tempo 1538461
243360 On ch=1 n=69 v=58
243360 On ch=2 n=64 v=44
243600 On ch=2 n=60 v=45
243840 Off ch=2 n=60 v=64
243840 Off ch=2 n=64 v=64
243840 Off ch=1 n=69 v=64
243840 Off ch=2 n=42 v=64
243840 Tempo 1666666
243840 On ch=1 n=66 v=58
243840 On ch=2 n=62 v=46
243840 On ch=2 n=47 v=46
244080 On ch=2 n=59 v=47
244320 Off ch=2 n=59 v=64
244320 Off ch=2 n=47 v=64
244320 Off ch=2 n=62 v=64
244320 Off ch=1 n=66 v=64
244320 Tempo 1875000
244320 On ch=1 n=64 v=58
244320 On ch=2 n=60 v=49
244320 On ch=2 n=50 v=49
244560 On ch=2 n=54 v=50
244680 Par ch=1 c=64 v=0
244800 Off ch=2 n=54 v=64
244800 Off ch=2 n=50 v=64
244800 Off ch=2 n=60 v=64
244800 Off ch=1 n=64 v=64
244800 Tempo 1500000
244800 On ch=1 n=66 v=58
244800 On ch=1 n=62 v=49
244800 On ch=2 n=59 v=48
244800 On ch=2 n=47 v=48
245760 Off ch=1 n=62 v=64
245760 Off ch=1 n=66 v=64
245760 Tempo 1428571
245760 On ch=1 n=71 v=53
245760 On ch=1 n=83 v=64
246720 Tempo 1250000
246720 On ch=2 n=35 v=49
247680 Off ch=1 n=83 v=64
247680 Off ch=1 n=71 v=64
247680 Tempo 1538461
247680 On ch=1 n=71 v=53
247680 On ch=1 n=83 v=64
248160 Off ch=1 n=83 v=64
248160 Off ch=1 n=71 v=64
248160 Off ch=2 n=59 v=64
248160 On ch=1 n=59 v=45
248208 On ch=1 n=60 v=45
248256 On ch=1 n=64 v=45
248304 On ch=1 n=71 v=45
248352 On ch=1 n=72 v=45
248400 On ch=1 n=76 v=52
248448 On ch=1 n=83 v=52
248640 Off ch=1 n=76 v=64
248640 Off ch=1 n=72 v=64
248640 Off ch=1 n=71 v=64
248640 Off ch=1 n=64 v=64
248640 Off ch=1 n=60 v=64
248640 Off ch=1 n=59 v=64
248640 Off ch=2 n=47 v=64
248640 Tempo 1578947
248640 On ch=1 n=71 v=40
248640 Par ch=1 c=64 v=127
248640 On ch=2 n=45 v=41
248640 On ch=2 n=52 v=41
248640 On ch=2 n=59 v=41
248640 Par ch=2 c=64 v=127
249120 Tempo 1200000
249120 On ch=1 n=76 v=39
249120 On ch=1 n=72 v=39
249600 Off ch=1 n=72 v=64
249600 Off ch=1 n=76 v=64
249600 On ch=1 n=60 v=31
249600 On ch=1 n=64 v=31
250080 Off ch=1 n=64 v=64
250080 Off ch=1 n=60 v=64
250080 On ch=1 n=76 v=33
250080 On ch=1 n=72 v=33
250560 Off ch=1 n=72 v=64
250560 Off ch=1 n=76 v=64
250560 Off ch=2 n=59 v=64
250560 Off ch=2 n=52 v=64
250560 Off ch=2 n=45 v=64
250560 Off ch=2 n=35 v=64
250560 On ch=2 n=59 v=41
251040 Off ch=2 n=59 v=64
251040 Off ch=1 n=71 v=64
251040 Off ch=1 n=83 v=64
251040 Tempo 1500000
251040 On ch=1 n=81 v=52
251040 On ch=1 n=79 v=43
251040 On ch=1 n=76 v=43
251040 On ch=1 n=69 v=41
251040 On ch=1 n=67 v=36
251040 On ch=1 n=64 v=36
251040 On ch=2 n=57 v=41
251520 Off ch=2 n=57 v=64
251520 Off ch=1 n=64 v=64
251520 Off ch=1 n=67 v=64
251520 Off ch=1 n=69 v=64
251520 Off ch=1 n=76 v=64
251520 Off ch=1 n=79 v=64
251520 Off ch=1 n=81 v=64
251520 Tempo 1304347
251520 On ch=1 n=74 v=39
251520 On ch=1 n=86 v=52
251520 On ch=2 n=62 v=41
252000 Off ch=2 n=62 v=64
252000 Off ch=1 n=86 v=64
252000 Off ch=1 n=74 v=64
252000 Tempo 1538461
252000 On ch=1 n=71 v=39
252000 On ch=1 n=72 v=39
252000 On ch=1 n=83 v=52
252000 On ch=1 n=76 v=43
252000 On ch=2 n=59 v=41
252000 On ch=2 n=60 v=41
252000 On ch=2 n=64 v=41
252360 Par ch=1 c=64 v=0
252360 Par ch=2 c=64 v=0
252480 Off ch=2 n=64 v=64
252480 Off ch=2 n=60 v=64
252480 Off ch=2 n=59 v=64
252480 Off ch=1 n=76 v=64
252480 Off ch=1 n=83 v=64
252480 Off ch=1 n=72 v=64
252480 Off ch=1 n=71 v=64
252480 Tempo 1666666
252480 On ch=1 n=83 v=54
252480 On ch=1 n=71 v=41
252480 Par ch=1 c=64 v=127
252480 On ch=2 n=59 v=41
252480 Par ch=2 c=64 v=127
252960 Off ch=2 n=59 v=64
252960 Tempo 1333333
252960 On ch=2 n=60 v=28
252960 On ch=2 n=64 v=28
252960 On ch=2 n=54 v=28
252960 On ch=2 n=38 v=28
252960 On ch=2 n=45 v=28
253440 Off ch=2 n=54 v=64
253440 Off ch=1 n=71 v=64
253440 Off ch=1 n=83 v=64
253440 Tempo 1500000
253440 On ch=1 n=81 v=54
253440 On ch=1 n=69 v=41
253440 On ch=2 n=54 v=28
253920 Off ch=2 n=64 v=64
253920 Off ch=2 n=60 v=64
253920 Tempo 1200000
253920 On ch=1 n=76 v=27
253920 On ch=1 n=72 v=27
253920 On ch=2 n=60 v=28
253920 On ch=2 n=64 v=28
254280 Par ch=1 c=64 v=0
254280 Par ch=2 c=64 v=0
254400 Off ch=1 n=72 v=64
254400 Off ch=1 n=76 v=64
254400 Off ch=1 n=69 v=64
254400 Off ch=1 n=81 v=64
254400 Off ch=2 n=38 v=64
254400 Tempo 1428571
254400 On ch=1 n=79 v=54
254400 On ch=1 n=67 v=41
254400 Par ch=1 c=64 v=127
254400 On ch=2 n=59 v=28
254400 Par ch=2 c=64 v=127
254880 Off ch=2 n=64 v=64
254880 Off ch=2 n=60 v=64
254880 Tempo 1395348
254880 On ch=1 n=76 v=27
254880 On ch=1 n=72 v=27
254880 On ch=2 n=60 v=28
254880 On ch=2 n=64 v=28
255216 Par ch=1 c=64 v=0
255216 Par ch=2 c=64 v=0
255360 Off ch=1 n=72 v=64
255360 Off ch=1 n=76 v=64
255360 Off ch=2 n=59 v=64
255360 Off ch=1 n=67 v=64
255360 Off ch=1 n=79 v=64
255360 Tempo 1538461
255360 On ch=1 n=81 v=54
255360 On ch=1 n=69 v=41
255360 Par ch=1 c=64 v=127
255360 On ch=2 n=57 v=28
255360 Par ch=2 c=64 v=127
255840 Off ch=2 n=64 v=64
255840 Off ch=2 n=60 v=64
255840 Tempo 1764705
255840 On ch=1 n=76 v=36
255840 On ch=1 n=72 v=36
255840 On ch=2 n=60 v=28
255840 On ch=2 n=64 v=28
256200 Par ch=1 c=64 v=0
256200 Par ch=2 c=64 v=0
256280 Off ch=1 n=69 v=64
256280 Off ch=1 n=81 v=64
256320 Off ch=1 n=72 v=64
256320 Off ch=1 n=76 v=64
256320 Off ch=2 n=57 v=64
256320 Off ch=2 n=54 v=64
256320 Off ch=2 n=45 v=64
256320 Tempo 2000000
256320 On ch=1 n=76 v=49
256320 Par ch=1 c=64 v=127
256320 On ch=2 n=55 v=22
256320 Par ch=2 c=64 v=127
256800 Off ch=1 n=76 v=64
256800 Off ch=2 n=64 v=64
256800 Off ch=2 n=60 v=64
256800 Tempo 1363636
256800 On ch=1 n=76 v=31
256800 On ch=1 n=71 v=31
256800 On ch=2 n=59 v=22
256800 On ch=2 n=64 v=22
257760 Off ch=2 n=64 v=64
257760 Off ch=2 n=59 v=64
257760 Off ch=1 n=71 v=64
257760 Off ch=1 n=76 v=64
257760 Tempo 1463414
257760 On ch=1 n=76 v=31
257760 On ch=1 n=71 v=31
257760 On ch=2 n=59 v=22
257760 On ch=2 n=64 v=22
258192 Par ch=1 c=64 v=0
258192 Par ch=2 c=64 v=0
258240 Off ch=2 n=55 v=64
258240 On ch=2 n=52 v=27
258240 On ch=2 n=40 v=27
258720 Off ch=2 n=40 v=64
258720 Off ch=2 n=52 v=64
258720 Off ch=2 n=64 v=64
258720 Off ch=2 n=59 v=64
258720 Off ch=1 n=71 v=64
258720 Off ch=1 n=76 v=64
258720 Tempo 1666666
258720 On ch=1 n=72 v=27
258720 On ch=1 n=74 v=31
258720 On ch=1 n=62 v=25
258720 On ch=2 n=38 v=27
258720 On ch=2 n=48 v=21
258720 On ch=2 n=50 v=21
259200 Off ch=2 n=50 v=64
259200 Off ch=2 n=48 v=64
259200 Off ch=2 n=38 v=64
259200 Off ch=1 n=62 v=64
259200 Off ch=1 n=74 v=64
259200 Off ch=1 n=72 v=64
259200 Tempo 1875000
259200 On ch=1 n=67 v=31
259200 On ch=1 n=79 v=31
259200 On ch=2 n=43 v=27
259200 On ch=2 n=55 v=27
259680 Off ch=2 n=55 v=64
259680 Off ch=2 n=43 v=64
259680 Off ch=1 n=79 v=64
259680 Off ch=1 n=67 v=64
259680 Tempo 2142857
259680 On ch=1 n=66 v=31
259680 On ch=1 n=72 v=27
259680 On ch=1 n=74 v=27
259680 On ch=1 n=78 v=31
259680 On ch=2 n=42 v=27
259680 On ch=2 n=54 v=27
259680 On ch=2 n=48 v=21
259680 On ch=2 n=50 v=21
260160 Off ch=2 n=50 v=64
260160 Off ch=2 n=48 v=64
260160 Off ch=2 n=54 v=64
260160 Off ch=2 n=42 v=64
260160 Off ch=1 n=78 v=64
260160 Off ch=1 n=74 v=64
260160 Off ch=1 n=72 v=64
260160 Off ch=1 n=66 v=64
260160 Tempo 3333333
260160 On ch=1 n=71 v=33
260160 On ch=1 n=76 v=33
260160 On ch=1 n=64 v=33
260160 On ch=2 n=40 v=27
260160 On ch=2 n=47 v=27
260160 On ch=2 n=52 v=27
260640 Off ch=2 n=52 v=64
260640 Off ch=2 n=47 v=64
260640 Off ch=2 n=40 v=64
260640 Off ch=1 n=64 v=64
260640 Off ch=1 n=76 v=64
260640 Off ch=1 n=71 v=64
260640 Tempo 2222222
260640 On ch=1 n=59 v=73
261120 Off ch=1 n=59 v=64
261120 Tempo 1935483
261120 On ch=1 n=62 v=77
261120 On ch=1 n=71 v=70
261600 Off ch=1 n=71 v=64
261600 Off ch=1 n=62 v=64
261600 Tempo 3000000
261600 On ch=1 n=64 v=93
261840 Tempo 1200000
261840 On ch=2 n=40 v=65
261900 On ch=2 n=47 v=61
261960 On ch=2 n=54 v=57
262020 On ch=2 n=56 v=54
262080 Off ch=1 n=64 v=64
262080 On ch=1 n=62 v=64
262140 On ch=1 n=66 v=70
262200 Tempo 2000000
262320 Tempo 3000000
262320 On ch=1 n=83 v=95
262320 On ch=1 n=74 v=95
262800 Off ch=1 n=74 v=64
262800 Off ch=1 n=83 v=64
262800 Off ch=1 n=62 v=64
262800 Off ch=2 n=56 v=64
262800 Off ch=2 n=54 v=64
262800 Off ch=2 n=40 v=64
262800 On ch=2 n=38 v=66
262800 On ch=2 n=45 v=66
262860 Off ch=1 n=66 v=64
262860 Off ch=2 n=47 v=64
263040 Tempo 3529411
263040 On ch=1 n=81 v=80
263040 On ch=1 n=76 v=80
263040 On ch=1 n=86 v=80
263040 On ch=1 n=72 v=80
263040 On ch=1 n=64 v=80
263040 On ch=2 n=60 v=60
263040 On ch=2 n=54 v=60
263520 Off ch=2 n=60 v=64
263520 Off ch=1 n=72 v=64
263520 On ch=1 n=71 v=80
263520 On ch=2 n=59 v=60
263760 Off ch=2 n=59 v=64
263760 Off ch=1 n=71 v=64
263760 On ch=1 n=69 v=80
263760 On ch=2 n=57 v=65
264000 Off ch=2 n=57 v=64
264000 Off ch=1 n=69 v=64
264000 Off ch=2 n=54 v=64
264000 Off ch=1 n=64 v=64
264000 Off ch=1 n=86 v=64
264000 Off ch=1 n=76 v=64
264000 Off ch=1 n=81 v=64
264000 Off ch=2 n=45 v=64
264000 Off ch=2 n=38 v=64
264000 Tempo 1333333
264000 On ch=2 n=31 v=65
264000 On ch=2 n=43 v=65
264240 Tempo 555555
264240 On ch=2 n=54 v=65
264400 On ch=2 n=59 v=65
264480 Tempo 517241
264560 On ch=2 n=66 v=65
264720 Tempo 483870
264720 On ch=1 n=71 v=65
264880 On ch=1 n=78 v=65
264960 Tempo 441176
265040 On ch=1 n=83 v=65
265200 Tempo 5000000
265200 On ch=1 n=86 v=65
265920 Off ch=1 n=86 v=64
265920 Off ch=1 n=83 v=64
265920 Off ch=1 n=78 v=64
265920 Off ch=1 n=71 v=64
265920 Off ch=2 n=66 v=64
265920 Off ch=2 n=59 v=64
265920 Off ch=2 n=54 v=64
265920 Off ch=2 n=43 v=64
265920 Off ch=2 n=31 v=64
265920 Tempo 2727272
265920 On ch=2 n=40 v=65
265920 On ch=2 n=52 v=65
265920 On ch=2 n=64 v=65
266880 Off ch=2 n=64 v=64
266880 Off ch=2 n=52 v=64
266880 Off ch=2 n=40 v=64
266880 Tempo 3000000
266880 On ch=2 n=38 v=65
266880 On ch=2 n=50 v=65
266880 On ch=2 n=62 v=65
267840 Off ch=2 n=62 v=64
267840 Off ch=2 n=50 v=64
267840 Off ch=2 n=38 v=64
267840 Tempo 1666666
267840 On ch=2 n=31 v=65
267840 On ch=2 n=43 v=65
268320 Tempo 4000000
268320 On ch=1 n=86 v=71
268320 On ch=1 n=79 v=71
268320 On ch=1 n=74 v=71
268320 On ch=2 n=55 v=56
268320 On ch=2 n=50 v=56
268320 On ch=2 n=62 v=56
269760 Off ch=2 n=31 v=64
270240 Off ch=2 n=62 v=64
270240 Off ch=2 n=50 v=64
270240 Off ch=2 n=55 v=64
270240 Off ch=1 n=74 v=64
270240 Off ch=1 n=79 v=64
270240 Off ch=1 n=86 v=64
270240 Off ch=2 n=43 v=64
270752 Par ch=1 c=64 v=0
270752 Meta TrkEnd
TrkEnd
